<svg id="Layer_1" data-name="Layer 1" xmlns="http://www.w3.org/2000/svg" viewBox="0 0 1019 144.16"><defs><style>.cls-1{fill:#e6302a;}.cls-1,.cls-2,.cls-3,.cls-4,.cls-5,.cls-6,.cls-7{opacity:0.75;}.cls-2{fill:#f4e600;}.cls-3{fill:#44b491;}.cls-4,.cls-5,.cls-6,.cls-7{fill:none;stroke-miterlimit:10;}.cls-4{stroke:#e6302a;}.cls-4,.cls-5,.cls-6{stroke-width:21.53px;}.cls-5,.cls-7{stroke:#44b491;}.cls-6{stroke:#f4e600;}.cls-7{stroke-width:21.23px;}</style></defs><title>hyperbool</title><rect class="cls-1" x="956.37" y="22.17" width="25.45" height="99.82"/><rect class="cls-2" x="975.94" y="78.93" width="23.49" height="62.63" transform="translate(877.44 1097.93) rotate(-90)"/><path class="cls-1" d="M272.79,113.87c-8.88,8.55-18.4,17.2-31.38,13.74,2.6-.87,6.06-.87,7.79-2.6,1.73-2.6,0-5.19-4.33-6.92,1.73-.87,5.19-3.46,4.33-3.46-19-3.46-19.9-24.23-14.1-37.28a37.2,37.2,0,0,1-1.19-4.62,27.49,27.49,0,0,1-.44-7,24.39,24.39,0,0,1,1.58-7.1c2.9-2.85,9,.61,8.09-3.72-1.73-6.92-8.65-12.11-8.65-20.77,1.73,4.33,5.19,7.79,9.52,5.19,2.6-1.73,2.6-6.92,3.46-10.38,0,1.73,1.73,1.73,2.6,3.46,11.25-5.19,21.63,1.73,18.17,14.71-1.73,6.06-6.06,12.11-12.11,14.71-2.6.87-6.06,1.73-8.65,3.46,2.6,3.46,6.92.87,10.4,2a20.46,20.46,0,0,1,3.66,1.27,21.88,21.88,0,0,1,8.83,7.38,19.4,19.4,0,0,1,2.14,4c-6.86-.8-20.7,4.39-16.38,10.45,3.46,5.19,14.71,6.06,16,15.68A39.25,39.25,0,0,1,272.79,113.87Z"/><path class="cls-2" d="M276.56,18.78c-17-9.71-28.23,5.86-33.42,21.44-.87.87-6.92-2.6-8.65-6.06.87,7.79,6.92,13.84,8.65,20.77.87,4.33-5.19.87-7.84,3.06a29.12,29.12,0,0,0-1.36,4,27.78,27.78,0,0,0-.49,11.66,31.82,31.82,0,0,0,1.24,4.93c-3.67,11-5.4,24.82,5.85,32.61,3.46,1.73,9.52,2.6,8.65,0-2.6-10.38-9.52-22.5,1.73-31.15,4.33-3.46,10.38-3.46,14.71-6.92a3.9,3.9,0,0,1,2.6-2.6c9.52-1.73,11.25,10.38,14.69,17.48a28.38,28.38,0,0,0,5.55-1.55c12.51-4.9,21.71-18.33,22.69-32a20.16,20.16,0,0,0-.47-5.11,31.35,31.35,0,0,0-25.14-24.52A9.86,9.86,0,0,1,282,22.84C280.47,21.6,278.6,20.14,276.56,18.78Z"/><path class="cls-1" d="M25,121.51H12.32c-4.54-.06-8-.06-12.32-.06q1-4.8,1.73-9.58t1.09-9.54C5.19,76.46-3.46,50.5,1.73,26.27c.43-1.73,4.11-2.6,8.82-3.14,5,.54,13.68-2.92,14.54-.32,6.06,13-.87,29.42-1.24,43.71-.25,3.74-.41,7.47-.51,11.21a209.37,209.37,0,0,0,1.44,33.47C24.94,117.52,25,121.51,25,121.51Z"/><path class="cls-1" d="M72.94,122.14c-8,.18-20.16,2.77-22.76-1.55a54.7,54.7,0,0,1-4.58-8.17,55.37,55.37,0,0,1-3-8.4,66,66,0,0,1-1.79-10.3,78.45,78.45,0,0,1-.26-10.25c1-16.52,9.65-29.5,14.84-45.07,1.73-6.06,1.73-11.25,1.73-17.31,8.65,2.6,22.5.87,23.36,13,0,18.17-13,32.88-16.46,51.24a49.44,49.44,0,0,0-.35,6.64,35.94,35.94,0,0,0,6,19.69C71.82,118.08,72.94,122.14,72.94,122.14Z"/><path class="cls-2" d="M70,63.48c-1.61,7.79-6.8,13.85-5.94,21.64-6.06.87-13-.87-19.42.51-3.27.3-6.54.64-9.78.89-9.73.76-19.25.76-27.9-3.14C.43,80.14,1.24,71.54,6.07,66a14.74,14.74,0,0,1,6-4.23c14.71-6.06,32.88-6.06,47.37-.86C65.55,62.61,70,63.48,70,63.48Z"/><path class="cls-1" d="M154.6,71.43a4.69,4.69,0,0,0-.55,2.64c-.87-3.46-2.6-7.79-5.19-10.38,11.25,15.57-8.65,33.75-9.65,51.11-.4,3.29-1.35,7.37-1.35,7.37h25.45s-.25-2.72-.34-5.33c-1.13-15.94-8-29.78-8.24-45.67Z"/><path class="cls-2" d="M178,22l-2.46,2.49L170.15,30c-8.31,13-10.91,29.39-16.1,44.1-6.92-15.57-13-31.15-23.28-43.88l-5.47-5.41-2.49-2.46L106.29,39l7.2,7.12c1,1,2.19,2.14,3.62,3.43,11.85,8.93,24.83,21.91,36.94,21,11.25,0,22.5-15.57,33.56-24.89l7.12-7.2Z"/><path class="cls-2" d="M368.48,123H343V96.58c0-1.88-1-3.2-1.6-5-6.07-14.07-3.48-30.51.87-44.48a50.31,50.31,0,0,0,.73-10V21.19h25.45v7.54c0,2.36-.82,1.41-1.58,2.19-26.34,15.46-34.13,54.4-8.17,74.3a106.62,106.62,0,0,1,8.58,6.66c.66.88,1.18,1.2,1.18,3.56Z"/><path class="cls-1" d="M417.42,21.19H343V33.91c0,3.18,0,6.34,0,8.71.16,1.16-.7,2.89-.7,3.75,20.77-21.63,49.32-14.71,71.93.26h3.2Z"/><path class="cls-1" d="M417.42,97.52h-3.2A18.6,18.6,0,0,0,407,98.71a47.07,47.07,0,0,1-63.87-1.28,40.33,40.33,0,0,1-.13,4.08c0,2.38,0,5.56,0,8.74V123h74.38Z"/><path class="cls-3" d="M413.2,57c-12.07-20.14-40.63-33.11-60.53-14.94-5.19,5.19-11.25,10.38-13,16.44-3.46,8.65-3.46,18.17,0,26a41.91,41.91,0,0,0,27.69,23.36c12.11,2.6,24.23-.87,33.75-8.65a41.84,41.84,0,0,0,11.25-13.84c3.46-7.79,3.46-16.44,1.67-24.08C413.59,58.64,413.2,57,413.2,57Z"/><path class="cls-4" d="M710,72.08c6.43,2.65,9.32,4.93,4.68,9,6.09,1.06,5,4.31.4,9.82,7.06-1.3,10.86-1.1,8.44,4.88,6-2.48,6.57.9,4.9,8.46,5.76-5.17,9.19-6.93,9.95-.11,4.16-5.52,6.32-2.52,8.82,5.19,2.5-7.71,4.67-10.71,8.82-5.19.76-6.82,4.18-5.05,9.95.11-1.68-7.56-1.15-10.95,4.9-8.46-2.42-6,1.39-6.18,8.44-4.88-4.59-5.51-5.69-8.76.4-9.82-4.65-4-1.76-6.3,4.68-9-6.43-2.65-9.32-4.93-4.68-9-6.09-1.06-5-4.31-.4-9.82-7.06,1.3-10.86,1.1-8.44-4.88-6,2.48-6.57-.9-4.9-8.46-5.76,5.17-9.19,6.93-9.95.11-4.16,5.52-6.32,2.52-8.82-5.19-2.5,7.71-4.67,10.71-8.82,5.19-.76,6.82-4.18,5.05-9.95-.11,1.68,7.56,1.15,10.95-4.9,8.46,2.42,6-1.39,6.18-8.44,4.88,4.59,5.51,5.69,8.76-.4,9.82C719.36,67.15,716.47,69.43,710,72.08Z"/><path class="cls-5" d="M747.23,109.27c2.5-7.71,4.67-10.71,8.82-5.19.76-6.82,4.18-5.05,9.95.11-1.68-7.56-1.15-10.95,4.9-8.46-2.42-6,1.39-6.18,8.44-4.88-4.59-5.51-5.69-8.76.4-9.82-4.65-4-1.76-6.3,4.68-9"/><path class="cls-6" d="M784.42,72.08c-6.43-2.65-9.32-4.93-4.68-9-6.09-1.06-5-4.31-.4-9.82-7.06,1.3-10.86,1.1-8.44-4.88-6,2.48-6.57-.9-4.9-8.46-5.76,5.17-9.19,6.93-9.95.11-4.16,5.52-6.32,2.52-8.82-5.19"/><path class="cls-2" d="M471.84,128.94c.41-6.25-6-6.25-13.82-1.43-4.85-4.82-11.21-4.82-12.53-2.48a9,9,0,0,0-3.93-11.42c5.25-15.88,5.25-28.36-9.45-40.08,14.69-13.23,14.69-25.71,8.5-42.13a8,8,0,0,0,4.3-11.72c1.89,3.18,8.25,3.18,12.62-2.84,8.36,6,14.72,6,14.19-1.63.53,7.65.53,13.89-.95,8.83,1.48,23.78,1.48,36.26-3.09,50.74,4.56,10.48,4.56,23,3.31,45.67C472.25,116.45,472.25,122.69,471.84,128.94Z"/><path class="cls-1" d="M491.74,16.5c-1.87,6.36-12.64,6.36-24.51-1-9.66,7.36-20.43,7.36-22.32,4.17,1.89,3.18,1.89,10.14-4.51,12.26,6.4,16.44,6.4,28-8.27,36.28,14.67,10.32,14.67,17.28,2.22,23.41,12.45-6.14,23.21-6.14,27,7.55,17.78-13.69,28.54-13.69,40-2.29-2.79-11.39,5-14.9,22.44-18.94-6.07-7.29-2.57-15.12,3.42-26-6-6.4-9.49-14.23-12-23.33C506.34,26.37,498.51,22.87,491.74,16.5Z"/><path class="cls-7" d="M468.15,89.78c10.94-10.15,17.36-8,34.76,6.69-6.38-7.22-1.78-1.89,8.72,12-4-1.12-2.19,6.31-1.28,15.63"/><path class="cls-4" d="M922.16,73c0,13.1-.46,14-1.33,17-.87-.62-2.14,5.82-3.75,1.77-1.61,5.21-3.57,14.72-5.82,9.19-2.24-6-4.77,6.54-7.53,4.15-2.75-4.34-5.74-1.22-8.88,5.6-3.15,4.22-6.46,1.07-9.89-.53-3.42,3.16-6.74-2.34-9.89-.44-3.15-4.91-6.13,2.12-8.88-4.64-2.75-6.94-5.28-6.73-7.53-6.48-2.24-2.31-4.2,3.86-5.82-6.87-1.61,3.77-2.88-11.3-3.75-8.29-.87-6.25-1.33-12.72-1.33-10.48,0-2.1.46-3.08,1.33-6.52.87-.16,2.14-1.43,3.75-12.25,1.61-11,3.57-10,5.82-5,2.24,1.83,4.77-7.38,7.53-8.35,2.75.66,5.74-7.15,8.88-5.48,3.15,3.81,6.46-5.7,9.89.41,3.42-4.43,6.74-6.89,9.89-1,3.15.68,6.13,4.36,8.88,6.09,2.75-4.37,5.28-.19,7.53,5.49,2.24,3.82,4.2,8.11,5.82,7.86,1.61-.74,2.88,7.39,3.75,11C921.7,72.1,922.16,68.2,922.16,73Z"/><path class="cls-6" d="M885,110.19c-3.42,3.7-6.74-4-9.89-.22-3.15-.59-6.13-6.49-8.88-4.86-2.75-8.62-5.28,3.94-7.53-1.71-2.24-7.92-4.2-2-5.82-11.63-1.61-4.05-2.88-2.08-3.75-6.61-.87-5.66-1.33-6.73-1.33-12.16,0-10.17.46-5.19,1.33-11.25.87-1.91,2.14-2.65,3.75-7.52,1.61,1,3.57-6.14,5.82-5.72,2.24-3.29,4.77-9,7.53-7.62,2.75-4.46,5.74-4.88,8.88-4.54,3.15,5.24,6.46.68,9.89-.54"/><path class="cls-2" d="M632.28,14.06c-1.81,6.6-4.76,7.54-8.09.58-2.78,4.87-5.37,5.6-8.18,1.49-2.73,3.3-5.68,1.76-9.18-3-4.15,7.32-9.35,8.37-15.4,4.49-2.1,4.51-5,4.09-6.94,1,2.41,3.93,2.41,10.89-5.75,11.31,4.11,6.79,5.45,10.71,1.09,10.07,4.26,6.65,2.81,8.73-5.21,7.12,7.5,7.25,8.41,10.81.68,11.75,5.54,4.87,2.43,7.1-7.66,8.69,10.09,3.05,13.2,5.45,7.08,8.75,8,1.55,6.69,4-2.48,8.55,12.94-.59,11.23,2-1.58,8,12.81-6.07,17.21-6.88,8.92,1.48C591.1,88.7,595,88.1,591.5,95c8.47-4.54,9.44-1.58,5.08,10.52,9.74-12.1,14.15-15.05,17.37-8.2,4.79-8.53,8.39-7.25,15.81,3.77-2.26-11.09-.71-12.44,6.84-5.41-2.88-5.8.22-3.24,9.46,6.53-7.08-9.76-7.4-12.55.77-9.34-5-6.27-1.5-6.56,10.13-3.2-7.69-5.53-7.24-7.42,1.62-7-4.26-3.21-.11-4.13,9.42-4.43-9.62-4.56-9.05-8.17.67-13.22-7.35-3-5.55-7.52.9-14.33-6.45-1.83-8.25-5.6-6-12.28-5.9-1-7.72-4.89-7.13-11.51-6.25,1-10.1-.8-11.54-7C638.66,22.48,634.8,20.66,632.28,14.06Z"/><path class="cls-1" d="M648.86,48.35c-11.21,7.91-14.64,9.86-11.11,5.38-8.5,5.41-10,4.4-6.84-4.55-8.45,8.9-12.17,9.86-17.36,3.14-3.21,5.4-7.89,3.12-19.54-7.15,6.27,10.28,5.57,12.56-3.7,9.08,4.46,5.31.36,4.87-12.33.61,9.75,6.25,5.21,5.66-8.95,1.18,14.16,4.48,16,6.8,2.41,8.14,9.79,3.21,11.19,5.47,3.25,8.27,6.34,2.33,3.35,5.2-6.33,9.74,9.68.1,12.68,1.87,7.78,7.26,7.18-.08,6.47,3.44.11,11,7-2.13,8.28-.22,4.9,6.13,3.68-.71,2.66,3-.5,9.27,6.25,1.51,6.25,8.47,5,10.76,1-1.83,3.84-2.06,6.72.91,5.21-2.47,10.48-1.73,15.06,3.5,6.19-5.24,11.69-6,16.46-1.11,3.57-4.94,6.42-4.3,7.59.36,3.16-4.66,7.12-6.18,12.44-4.9,2.32-4.71,6-6.62,11.11-6.62.56-5.66,2.54-9.42,7.39-10.72-1.21-6.19.45-9.93,5.95-11.55-5.5-7-7.15-11.52-.18-13.63-9.17-5.78-9.71-9.17.17-12.09-9.7-1.36-13.91-2.63-9.26-4.93-9.17-.59-9.48-2.22-.88-6.17-12.5,1.86-16.08,1.39-10.16-3.42C639.17,58.43,639.82,56.26,648.86,48.35Z"/></svg>