<?xml version="1.0" encoding="utf-8"?>
<!-- Generator: Adobe Illustrator 21.1.0, SVG Export Plug-In . SVG Version: 6.00 Build 0)  -->
<svg version="1.1" id="Layer_1" xmlns="http://www.w3.org/2000/svg" xmlns:xlink="http://www.w3.org/1999/xlink" x="0px" y="0px"
	 viewBox="0 0 35.7 35.7" style="enable-background:new 0 0 35.7 35.7;" xml:space="preserve">
<style type="text/css">
	.st0{fill:#00D66C;}
	.st1{fill:#FFFFFF;}
</style>
<circle class="st0" cx="17.9" cy="17.9" r="17.9"/>
<g>
	<g>
		<path class="st1" d="M9,15.4c-0.7,0-1.2,0.2-1.7,0.7c-0.5,0.5-0.7,1-0.7,1.7c0,0.7,0.2,1.2,0.7,1.7c0.5,0.5,1,0.7,1.7,0.7
			c0.7,0,1.2-0.2,1.7-0.7c0.5-0.5,0.7-1,0.7-1.7c0-0.7-0.2-1.2-0.7-1.7C10.2,15.7,9.6,15.4,9,15.4z"/>
		<path class="st1" d="M9,9C8.3,9,7.7,9.2,7.3,9.7c-0.5,0.5-0.7,1-0.7,1.7c0,0.7,0.2,1.2,0.7,1.7c0.5,0.5,1,0.7,1.7,0.7
			c0.7,0,1.2-0.2,1.7-0.7c0.5-0.5,0.7-1,0.7-1.7c0-0.7-0.2-1.2-0.7-1.7C10.2,9.2,9.6,9,9,9z"/>
		<path class="st1" d="M9,21.9c-0.7,0-1.2,0.2-1.7,0.7c-0.5,0.5-0.7,1-0.7,1.7c0,0.7,0.2,1.2,0.7,1.7c0.5,0.5,1,0.7,1.7,0.7
			c0.7,0,1.2-0.2,1.7-0.7c0.5-0.5,0.7-1,0.7-1.7c0-0.7-0.2-1.2-0.7-1.7C10.2,22.1,9.6,21.9,9,21.9z"/>
		<path class="st1" d="M29,9.9c-0.1-0.1-0.2-0.1-0.3-0.1H13.4c-0.1,0-0.2,0-0.3,0.1C13.1,10,13,10.1,13,10.2v2.4
			c0,0.1,0,0.2,0.1,0.3c0.1,0.1,0.2,0.1,0.3,0.1h15.3c0.1,0,0.2,0,0.3-0.1c0.1-0.1,0.1-0.2,0.1-0.3v-2.4C29.2,10.1,29.1,10,29,9.9z"
			/>
		<path class="st1" d="M28.8,16.2H13.4c-0.1,0-0.2,0-0.3,0.1c-0.1,0.1-0.1,0.2-0.1,0.3v2.4c0,0.1,0,0.2,0.1,0.3
			c0.1,0.1,0.2,0.1,0.3,0.1h15.3c0.1,0,0.2,0,0.3-0.1c0.1-0.1,0.1-0.2,0.1-0.3v-2.4c0-0.1,0-0.2-0.1-0.3
			C29,16.3,28.9,16.2,28.8,16.2z"/>
		<path class="st1" d="M28.8,22.7H13.4c-0.1,0-0.2,0-0.3,0.1C13.1,22.9,13,23,13,23.1v2.4c0,0.1,0,0.2,0.1,0.3
			c0.1,0.1,0.2,0.1,0.3,0.1h15.3c0.1,0,0.2,0,0.3-0.1c0.1-0.1,0.1-0.2,0.1-0.3v-2.4c0-0.1,0-0.2-0.1-0.3
			C29,22.7,28.9,22.7,28.8,22.7z"/>
	</g>
</g>
</svg>
