<svg id="Layer_1" data-name="Layer 1" xmlns="http://www.w3.org/2000/svg" viewBox="0 0 57.87 57.87"><defs><style>.cls-1{fill:#51b266;}.cls-2{fill:#fff;}</style></defs><title>lijst</title><circle class="cls-1" cx="28.94" cy="28.94" r="28.94"/><path class="cls-2" d="M14.32,25.12a3.93,3.93,0,1,0,2.78,6.71,3.93,3.93,0,0,0-2.78-6.71Z" transform="translate(0.22 -0.11)"/><path class="cls-2" d="M14.32,14.65a3.91,3.91,0,0,0-3.93,3.93,3.91,3.91,0,0,0,3.93,3.93,3.91,3.91,0,0,0,3.93-3.93,3.91,3.91,0,0,0-3.93-3.93Z" transform="translate(0.22 -0.11)"/><path class="cls-2" d="M14.32,35.59a3.93,3.93,0,1,0,2.78,6.71,3.93,3.93,0,0,0-2.78-6.71Z" transform="translate(0.22 -0.11)"/><path class="cls-2" d="M46.84,16.15a.63.63,0,0,0-.46-.19H21.52a.66.66,0,0,0-.65.65v3.93a.66.66,0,0,0,.65.65H46.38a.66.66,0,0,0,.65-.65V16.61A.63.63,0,0,0,46.84,16.15Z" transform="translate(0.22 -0.11)"/><path class="cls-2" d="M46.38,26.43H21.52a.66.66,0,0,0-.65.65V31a.66.66,0,0,0,.65.65H46.38A.66.66,0,0,0,47,31V27.08a.66.66,0,0,0-.65-.65Z" transform="translate(0.22 -0.11)"/><path class="cls-2" d="M46.38,36.9H21.52a.66.66,0,0,0-.65.65v3.93a.66.66,0,0,0,.65.65H46.38a.66.66,0,0,0,.65-.65V37.55a.66.66,0,0,0-.65-.65Z" transform="translate(0.22 -0.11)"/></svg>