<svg id="Layer_1" data-name="Layer 1" xmlns="http://www.w3.org/2000/svg" viewBox="0 0 24.21 25.79"><defs><style>.cls-1{fill:#ff3268;}.cls-2{fill:#fff;}</style></defs><title>pluseen</title><path class="cls-1" d="M16.89,9.58h.75L12.11,0,6.58,9.58h.75A7.34,7.34,0,0,0,0,16.9v1.57a7.34,7.34,0,0,0,7.32,7.32h9.57a7.34,7.34,0,0,0,7.32-7.32V16.9A7.34,7.34,0,0,0,16.89,9.58Z"/><path class="cls-2" d="M9.1,16.22V14.43h1.45v1.79h1.79v1.33H10.55v1.8H9.1v-1.8H7.34V16.22Z"/><path class="cls-2" d="M12.88,19.71h1.26V14.09H12.83V12.66h2.88v7.05h1.16v1.34h-4Z"/></svg>