<svg id="Layer_1" data-name="Layer 1" xmlns="http://www.w3.org/2000/svg" viewBox="0 0 35.71 35.71"><defs><style>.cls-1{fill:#ff3268;}.cls-2{fill:#fff;}</style></defs><title>pluseentablet</title><circle class="cls-1" cx="17.85" cy="17.85" r="17.85"/><path class="cls-2" d="M26.46,10.48h0a5.48,5.48,0,0,0-7.75,0l-.86.86L17,10.48a5.48,5.48,0,0,0-7.75,0h0a5.48,5.48,0,0,0,0,7.75l.86.86,7.75,7.75,7.75-7.75.86-.86A5.48,5.48,0,0,0,26.46,10.48Z"/><path class="cls-1" d="M15.82,16.46V15.25h1v1.21H18v.9H16.8v1.22h-1V17.36H14.63v-.9Z"/><path class="cls-1" d="M18.38,18.81h.85V15h-.88V14h1.95v4.77h.79v.91h-2.7Z"/></svg>