<svg id="Layer_1" data-name="Layer 1" xmlns="http://www.w3.org/2000/svg" viewBox="0 0 744.26 234.95"><defs><style>.cls-1,.cls-10,.cls-100,.cls-101,.cls-102,.cls-103,.cls-104,.cls-105,.cls-106,.cls-11,.cls-12,.cls-13,.cls-14,.cls-15,.cls-16,.cls-17,.cls-18,.cls-19,.cls-2,.cls-20,.cls-21,.cls-22,.cls-23,.cls-24,.cls-25,.cls-26,.cls-27,.cls-28,.cls-29,.cls-3,.cls-30,.cls-31,.cls-32,.cls-33,.cls-34,.cls-35,.cls-36,.cls-37,.cls-38,.cls-39,.cls-4,.cls-41,.cls-42,.cls-43,.cls-44,.cls-45,.cls-46,.cls-47,.cls-48,.cls-49,.cls-5,.cls-50,.cls-51,.cls-52,.cls-53,.cls-54,.cls-55,.cls-56,.cls-57,.cls-58,.cls-59,.cls-6,.cls-60,.cls-61,.cls-62,.cls-63,.cls-64,.cls-65,.cls-66,.cls-67,.cls-68,.cls-69,.cls-7,.cls-70,.cls-71,.cls-72,.cls-73,.cls-74,.cls-75,.cls-76,.cls-77,.cls-78,.cls-79,.cls-8,.cls-80,.cls-81,.cls-82,.cls-83,.cls-84,.cls-85,.cls-86,.cls-87,.cls-88,.cls-89,.cls-9,.cls-90,.cls-91,.cls-92,.cls-93,.cls-94,.cls-95,.cls-96,.cls-97,.cls-98,.cls-99{fill:none;}.cls-1{stroke:#ffeda6;stroke-width:0.22px;}.cls-2,.cls-91{stroke:#f3e7ab;}.cls-2,.cls-52{stroke-width:0.27px;}.cls-3,.cls-90{stroke:#e7e1b0;}.cls-3,.cls-51{stroke-width:0.32px;}.cls-106,.cls-4,.cls-89{stroke:#dadbb4;}.cls-4,.cls-65{stroke-width:0.37px;}.cls-5,.cls-88{stroke:#ced5b8;}.cls-49,.cls-5{stroke-width:0.42px;}.cls-105,.cls-6,.cls-87{stroke:#c0cfbb;}.cls-6,.cls-66{stroke-width:0.48px;}.cls-7,.cls-86{stroke:#b1c8bf;}.cls-47,.cls-7{stroke-width:0.53px;}.cls-8,.cls-85{stroke:#a2c2c2;}.cls-46,.cls-8{stroke-width:0.58px;}.cls-84,.cls-9{stroke:#93bcc5;}.cls-45,.cls-9{stroke-width:0.63px;}.cls-10,.cls-83{stroke:#82b6c8;}.cls-10,.cls-44{stroke-width:0.68px;}.cls-11,.cls-82{stroke:#6eafca;}.cls-11,.cls-43{stroke-width:0.73px;}.cls-12,.cls-81{stroke:#59a9cc;}.cls-12,.cls-42{stroke-width:0.78px;}.cls-13,.cls-80{stroke:#3da3ce;}.cls-13,.cls-41{stroke-width:0.83px;}.cls-14,.cls-79{stroke:#0a9dcf;}.cls-14,.cls-15,.cls-16,.cls-17,.cls-18,.cls-19,.cls-20,.cls-21,.cls-22,.cls-23,.cls-24,.cls-25,.cls-26,.cls-27{stroke-width:0.88px;}.cls-15{stroke:#3f98c7;}.cls-16{stroke:#5793bf;}.cls-17{stroke:#698db6;}.cls-18{stroke:#7887ae;}.cls-19{stroke:#8580a5;}.cls-20{stroke:#8f789c;}.cls-21{stroke:#986f93;}.cls-22{stroke:#9f668a;}.cls-23{stroke:#a65b81;}.cls-24{stroke:#ad5078;}.cls-25{stroke:#b2436f;}.cls-26{stroke:#b73567;}.cls-100,.cls-101,.cls-102,.cls-103,.cls-104,.cls-27,.cls-92,.cls-93,.cls-94,.cls-95,.cls-96,.cls-97,.cls-98,.cls-99{stroke:#bc2660;}.cls-28{stroke:#b43663;}.cls-28,.cls-53{stroke-width:0.92px;}.cls-29{stroke:#ad4366;}.cls-29,.cls-54{stroke-width:0.95px;}.cls-30{stroke:#a54e69;}.cls-30,.cls-55{stroke-width:0.98px;}.cls-31{stroke:#9c556a;}.cls-31,.cls-56{stroke-width:1.01px;}.cls-32{stroke:#935a6a;}.cls-32,.cls-57{stroke-width:1.05px;}.cls-33{stroke:#885c68;}.cls-33,.cls-58{stroke-width:1.08px;}.cls-34{stroke:#7e5c65;}.cls-34,.cls-59{stroke-width:1.11px;}.cls-35{stroke:#71595f;}.cls-35,.cls-60{stroke-width:1.15px;}.cls-36{stroke:#645357;}.cls-36,.cls-61{stroke-width:1.18px;}.cls-37{stroke:#554b4d;}.cls-37,.cls-62{stroke-width:1.21px;}.cls-38{stroke:#453f40;}.cls-38,.cls-63{stroke-width:1.24px;}.cls-39{stroke:#333030;}.cls-39,.cls-64{stroke-width:1.28px;}.cls-40{fill:#1d1d1b;stroke:#1d1d1b;stroke-width:1.31px;}.cls-41{stroke:#c03865;}.cls-42{stroke:#c44a6b;}.cls-43{stroke:#c95b72;}.cls-44{stroke:#ce6b79;}.cls-45{stroke:#d27a7f;}.cls-46{stroke:#d78a85;}.cls-47{stroke:#dd998b;}.cls-48,.cls-66{stroke:#e2a891;}.cls-105,.cls-48{stroke-width:0.48px;}.cls-49{stroke:#e8b696;}.cls-50,.cls-65{stroke:#eec49b;}.cls-106,.cls-50{stroke-width:0.37px;}.cls-51{stroke:#f3d29f;}.cls-52{stroke:#f9e0a2;}.cls-53{stroke:#399bc8;}.cls-54{stroke:#4e99bf;}.cls-55{stroke:#5c95b6;}.cls-56{stroke:#6491ac;}.cls-57{stroke:#688ba1;}.cls-58{stroke:#688395;}.cls-59{stroke:#677b89;}.cls-60{stroke:#63717b;}.cls-61{stroke:#5b646b;}.cls-62{stroke:#51565b;}.cls-63{stroke:#444648;}.cls-64{stroke:#333434;}.cls-67{stroke:#f1e1a4;stroke-width:0.3px;}.cls-68{stroke:#e2d5a2;stroke-width:0.39px;}.cls-69{stroke:#d3c99e;stroke-width:0.47px;}.cls-70{stroke:#c3bb99;stroke-width:0.56px;}.cls-71{stroke:#b4ae92;stroke-width:0.64px;}.cls-72{stroke:#a49f8a;stroke-width:0.72px;}.cls-73{stroke:#939080;stroke-width:0.81px;}.cls-74{stroke:#838074;stroke-width:0.89px;}.cls-75{stroke:#716f66;stroke-width:0.98px;}.cls-76{stroke:#5e5d57;stroke-width:1.06px;}.cls-77{stroke:#4b4a46;stroke-width:1.14px;}.cls-78{stroke:#363533;stroke-width:1.23px;}.cls-79{stroke-width:0.22px;}.cls-80{stroke-width:0.22px;}.cls-81{stroke-width:0.22px;}.cls-82{stroke-width:0.22px;}.cls-83{stroke-width:0.22px;}.cls-84{stroke-width:0.22px;}.cls-85{stroke-width:0.22px;}.cls-86{stroke-width:0.22px;}.cls-87{stroke-width:0.22px;}.cls-88{stroke-width:0.22px;}.cls-89{stroke-width:0.22px;}.cls-90{stroke-width:0.22px;}.cls-91{stroke-width:0.22px;}.cls-92{stroke-width:0.25px;}.cls-93{stroke-width:0.3px;}.cls-94{stroke-width:0.35px;}.cls-95{stroke-width:0.4px;}.cls-96{stroke-width:0.44px;}.cls-97{stroke-width:0.49px;}.cls-98{stroke-width:0.54px;}.cls-99{stroke-width:0.59px;}.cls-100{stroke-width:0.64px;}.cls-101{stroke-width:0.69px;}.cls-102{stroke-width:0.74px;}.cls-103{stroke-width:0.78px;}.cls-104{stroke-width:0.83px;}</style></defs><title>poepen</title><path class="cls-1" d="M209.9,216.31v9.26h6.53c6,0,6-9.26,0-9.26Zm0,10.52v6.24h-1.39V215h7.92c7.84,0,7.84,11.81,0,11.81Z"/><path class="cls-2" d="M204.76,211.08v9.65h6.8c6.27,0,6.27-9.65,0-9.65Zm0,11v6.51h-1.45V209.73h8.26c8.17,0,8.17,12.32,0,12.32Z"/><path class="cls-3" d="M199.62,205.84v10h7.08c6.52,0,6.52-10,0-10Zm0,11.42V224h-1.51V204.44h8.59c8.51,0,8.51,12.82,0,12.82Z"/><path class="cls-4" d="M194.48,200.6V211h7.36c6.78,0,6.78-10.44,0-10.44Zm0,11.87v7h-1.57V199.15h8.93c8.84,0,8.84,13.32,0,13.32Z"/><path class="cls-5" d="M189.34,195.37V206.2H197c7,0,7-10.84,0-10.84Zm0,12.32V215h-1.63V193.86H197c9.18,0,9.18,13.82,0,13.82Z"/><path class="cls-6" d="M184.19,190.13v11.23h7.91c7.29,0,7.29-11.23,0-11.23Zm0,12.76v7.57h-1.69v-21.9h9.6c9.51,0,9.51,14.33,0,14.33Z"/><path class="cls-7" d="M179.05,184.89v11.63h8.19c7.54,0,7.54-11.63,0-11.63Zm0,13.21v7.84H177.3V183.27h9.94c9.84,0,9.84,14.83,0,14.83Z"/><path class="cls-8" d="M173.91,179.65v12h8.47c7.8,0,7.8-12,0-12Zm0,13.66v8.1H172.1V178h10.28c10.18,0,10.18,15.33,0,15.33Z"/><path class="cls-9" d="M168.77,174.42v12.41h8.75c8.06,0,8.06-12.41,0-12.41Zm0,14.11v8.37H166.9V172.69h10.62c10.51,0,10.51,15.84,0,15.84Z"/><path class="cls-10" d="M163.63,169.18V182h9c8.31,0,8.31-12.81,0-12.81Zm0,14.56v8.63H161.7v-25h11c10.85,0,10.85,16.34,0,16.34Z"/><path class="cls-11" d="M158.49,163.94v13.2h9.3c8.57,0,8.57-13.2,0-13.2Zm0,15v8.9h-2V162.11h11.29c11.18,0,11.18,16.84,0,16.84Z"/><path class="cls-12" d="M153.34,158.71v13.6h9.58c8.82,0,8.82-13.6,0-13.6Zm0,15.45v9.17h-2V156.81h11.63c11.51,0,11.51,17.35,0,17.35Z"/><path class="cls-13" d="M148.2,153.47v14h9.86c9.08,0,9.08-14,0-14Zm0,15.9v9.43h-2.1V151.52h12c11.85,0,11.85,17.85,0,17.85Z"/><path class="cls-14" d="M143.06,148.23v14.39H153.2c9.34,0,9.34-14.39,0-14.39Zm0,16.35v9.7H140.9v-28h12.3c12.18,0,12.18,18.35,0,18.35Z"/><path class="cls-15" d="M137.78,142.8v15h10.58c9.75,0,9.75-15,0-15Zm0,17.07V170h-2.26V140.71h12.84c12.72,0,12.72,19.16,0,19.16Z"/><path class="cls-16" d="M132.5,137.36V153h11c10.16,0,10.16-15.65,0-15.65Zm0,17.78v10.55h-2.35V135.19h13.38c13.25,0,13.25,20,0,20Z"/><path class="cls-17" d="M127.21,131.93v16.28h11.47c10.56,0,10.56-16.28,0-16.28Zm0,18.5v11h-2.45V129.66h13.92c13.78,0,13.78,20.77,0,20.77Z"/><path class="cls-18" d="M121.93,126.5V143.4h11.92c11,0,11-16.91,0-16.91Zm0,19.22v11.4h-2.54v-33h14.46c14.32,0,14.32,21.57,0,21.57Z"/><path class="cls-19" d="M116.65,121.06V138.6H129c11.38,0,11.38-17.54,0-17.54Zm0,19.93v11.82H114v-34.2h15c14.85,0,14.85,22.37,0,22.37Z"/><path class="cls-20" d="M111.37,115.63V133.8h12.8c11.79,0,11.79-18.17,0-18.17Zm0,20.65v12.25h-2.73V113.1h15.54c15.39,0,15.39,23.18,0,23.18Z"/><path class="cls-21" d="M106.08,110.19V129h13.25c12.2,0,12.2-18.8,0-18.8Zm0,21.37v12.67h-2.83V107.58h16.08c15.92,0,15.92,24,0,24Z"/><path class="cls-22" d="M100.8,104.76v19.43h13.69c12.61,0,12.61-19.43,0-19.43Zm0,22.08v13.1H97.88V102.05h16.62c16.45,0,16.45,24.79,0,24.79Z"/><path class="cls-23" d="M95.52,99.33v20.06h14.14c13,0,13-20.06,0-20.06Zm0,22.8v13.52h-3V96.53h17.15c17,0,17,25.59,0,25.59Z"/><path class="cls-24" d="M90.24,93.89v20.69h14.58c13.43,0,13.43-20.69,0-20.69Zm0,23.51v13.95H87.12V91h17.69c17.52,0,17.52,26.4,0,26.4Z"/><path class="cls-25" d="M85,88.46v21.32h15c13.84,0,13.84-21.32,0-21.32Zm0,24.23v14.37H81.75V85.49H100c18.05,0,18.05,27.2,0,27.2Z"/><path class="cls-26" d="M79.67,83v22H95.14c14.25,0,14.25-22,0-22Zm0,24.95v14.8h-3.3V80H95.14c18.59,0,18.59,28,0,28Z"/><path class="cls-27" d="M74.39,77.59v22.58H90.3c14.66,0,14.66-22.58,0-22.58Zm0,25.66v15.22H71v-44H90.3c19.12,0,19.12,28.81,0,28.81Z"/><path class="cls-28" d="M69.08,72.12V95.37H85.47c15.09,0,15.09-23.26,0-23.26Zm0,26.43v15.68h-3.5V68.88H85.47c19.69,0,19.69,29.67,0,29.67Z"/><path class="cls-29" d="M63.77,66.64V90.58H80.64c15.53,0,15.53-23.93,0-23.93Zm0,27.2V110h-3.6V63.31H80.64c20.27,0,20.27,30.53,0,30.53Z"/><path class="cls-30" d="M58.46,61.17V85.78H75.81c16,0,16-24.61,0-24.61Zm0,28v16.59h-3.7v-48h21c20.84,0,20.84,31.39,0,31.39Z"/><path class="cls-31" d="M53.15,55.7V81H71C87.38,81,87.38,55.7,71,55.7Zm0,28.73v17h-3.8V52.18H71c21.41,0,21.41,32.26,0,32.26Z"/><path class="cls-32" d="M47.84,50.23v26H66.14c16.85,0,16.85-26,0-26Zm0,29.5v17.5h-3.9V46.61h22.2c22,0,22,33.12,0,33.12Z"/><path class="cls-33" d="M42.54,44.76V71.39H61.31c17.29,0,17.29-26.64,0-26.64Zm0,30.27V93h-4V41H61.31c22.55,0,22.55,34,0,34Z"/><path class="cls-34" d="M37.23,39.29V66.6H56.47c17.73,0,17.73-27.31,0-27.31Zm0,31V88.73H33.12V35.48H56.47c23.13,0,23.13,34.84,0,34.84Z"/><path class="cls-35" d="M31.92,33.81v28H51.64c18.16,0,18.16-28,0-28Zm0,31.81V84.48H27.71V29.92H51.64c23.7,0,23.7,35.7,0,35.7Z"/><path class="cls-36" d="M26.61,28.34V57h20.2c18.6,0,18.6-28.66,0-28.66Zm0,32.57V80.24H22.3V24.35H46.81c24.27,0,24.27,36.56,0,36.56Z"/><path class="cls-37" d="M21.3,22.87V52.21H42c19,0,19-29.34,0-29.34Zm0,33.34V76H16.89V18.79H42c24.84,0,24.84,37.43,0,37.43Z"/><path class="cls-38" d="M16,17.4v30H37.14c19.48,0,19.48-30,0-30Zm0,34.11V71.74H11.48V13.22H37.14c25.41,0,25.41,38.29,0,38.29Z"/><path class="cls-39" d="M10.68,11.93V42.61H32.31c19.92,0,19.92-30.69,0-30.69Zm0,34.88V67.49H6.07V7.65H32.31c26,0,26,39.15,0,39.15Z"/><path class="cls-40" d="M5.37,6.46V37.82h22.1c20.36,0,20.36-31.36,0-31.36Zm0,35.64V63.24H.66V2.09H27.48c26.56,0,26.56,40,0,40Z"/><path class="cls-27" d="M312.49,223.61c0,4.76,3,9.4,9,9.4s9.07-4.64,9.07-9.4-3-9.37-9.07-9.37S312.46,218.64,312.49,223.61Zm19.67,0c0,5.54-3.55,10.87-10.63,10.87s-10.63-5.36-10.63-10.93,3.52-10.84,10.63-10.84S332.18,217.95,332.15,223.64Z"/><path class="cls-41" d="M305.39,216.86c0,4.94,3.16,9.76,9.39,9.76s9.42-4.82,9.42-9.76-3.13-9.73-9.42-9.73S305.36,211.7,305.39,216.86Zm20.43,0c0,5.76-3.69,11.3-11,11.3s-11-5.57-11-11.36,3.66-11.26,11-11.26S325.86,211,325.82,216.89Z"/><path class="cls-42" d="M298.3,210.12c0,5.13,3.28,10.13,9.74,10.13s9.77-5,9.77-10.13S314.56,200,308,200,298.26,204.76,298.3,210.12Zm21.2,0c0,6-3.83,11.72-11.46,11.72s-11.46-5.78-11.46-11.79,3.8-11.69,11.46-11.69S319.53,204,319.5,210.15Z"/><path class="cls-43" d="M291.2,203.37c0,5.32,3.4,10.5,10.09,10.5s10.13-5.18,10.13-10.5-3.36-10.46-10.13-10.46S291.17,197.82,291.2,203.37Zm22,0c0,6.19-4,12.14-11.88,12.14s-11.88-6-11.88-12.21,3.94-12.11,11.88-12.11S313.2,197,313.17,203.41Z"/><path class="cls-44" d="M284.1,196.63c0,5.5,3.52,10.86,10.45,10.86S305,202.13,305,196.63s-3.48-10.83-10.48-10.83S284.07,190.89,284.1,196.63Zm22.74,0c0,6.41-4.11,12.57-12.29,12.57s-12.29-6.2-12.29-12.64,4.07-12.53,12.29-12.53S306.87,190.08,306.84,196.67Z"/><path class="cls-45" d="M277,189.89c0,5.69,3.64,11.23,10.8,11.23s10.83-5.54,10.83-11.23-3.6-11.19-10.83-11.19S277,183.95,277,189.89Zm23.5,0c0,6.62-4.25,13-12.71,13s-12.71-6.41-12.71-13.07,4.21-13,12.71-13S300.55,183.12,300.51,189.92Z"/><path class="cls-46" d="M269.91,183.14c0,5.87,3.75,11.6,11.15,11.6s11.19-5.72,11.19-11.6-3.72-11.56-11.19-11.56S269.87,177,269.91,183.14Zm24.27,0c0,6.84-4.39,13.42-13.12,13.42S267.94,190,267.94,183.1s4.35-13.38,13.12-13.38S294.22,176.15,294.18,183.18Z"/><path class="cls-47" d="M262.81,176.4c0,6.06,3.87,12,11.5,12s11.54-5.9,11.54-12c0-6.21-3.83-11.92-11.54-11.92S262.78,170.07,262.81,176.4Zm25,0c0,7.05-4.52,13.84-13.53,13.84s-13.53-6.82-13.53-13.92,4.49-13.8,13.53-13.8S287.89,169.19,287.85,176.44Z"/><path class="cls-48" d="M255.72,169.65c0,6.24,4,12.33,11.86,12.33s11.89-6.09,11.89-12.33c0-6.4-4-12.29-11.89-12.29S255.68,163.13,255.72,169.65Zm25.8,0c0,7.27-4.66,14.27-13.95,14.27s-13.95-7-13.95-14.34,4.62-14.23,13.95-14.23S281.56,162.22,281.52,169.69Z"/><path class="cls-49" d="M248.62,162.91c0,6.43,4.11,12.7,12.21,12.7s12.25-6.27,12.25-12.7c0-6.59-4.07-12.66-12.25-12.66S248.58,156.2,248.62,162.91Zm26.57,0c0,7.49-4.8,14.69-14.36,14.69s-14.36-7.24-14.36-14.77,4.76-14.65,14.36-14.65S275.24,155.26,275.19,163Z"/><path class="cls-50" d="M241.53,156.17c0,6.61,4.23,13.06,12.56,13.06s12.6-6.45,12.6-13.06c0-6.78-4.19-13-12.6-13S241.48,149.26,241.53,156.17Zm27.34,0c0,7.7-4.94,15.11-14.78,15.11s-14.78-7.45-14.78-15.2,4.9-15.07,14.78-15.07S268.91,148.29,268.87,156.21Z"/><path class="cls-51" d="M234.43,149.42c0,6.8,4.35,13.43,12.91,13.43s13-6.63,13-13.43c0-7-4.3-13.39-13-13.39S234.39,142.32,234.43,149.42Zm28.11,0c0,7.92-5.08,15.54-15.19,15.54s-15.19-7.66-15.19-15.62,5-15.5,15.19-15.5S262.58,141.33,262.54,149.46Z"/><path class="cls-52" d="M227.33,142.68c0,7,4.47,13.8,13.27,13.8s13.31-6.81,13.31-13.8c0-7.16-4.42-13.75-13.31-13.75S227.29,135.38,227.33,142.68Zm28.87,0c0,8.14-5.22,16-15.61,16S225,150.81,225,142.63s5.17-15.92,15.61-15.92S256.25,134.36,256.21,142.72Z"/><path class="cls-1" d="M220.24,135.93c0,7.17,4.58,14.16,13.62,14.16s13.66-7,13.66-14.16c0-7.35-4.54-14.12-13.66-14.12S220.19,128.44,220.24,135.93Zm29.64,0c0,8.35-5.36,16.39-16,16.39s-16-8.08-16-16.48,5.31-16.34,16-16.34S249.92,127.4,249.88,136Z"/><path class="cls-2" d="M216.78,132.86c0,7.37,4.71,14.56,14,14.56s14-7.19,14-14.56c0-7.56-4.67-14.52-14-14.52S216.74,125.16,216.78,132.86Zm30.48,0c0,8.59-5.51,16.85-16.48,16.85s-16.48-8.31-16.48-16.94,5.46-16.8,16.48-16.8S247.31,124.09,247.26,132.91Z"/><path class="cls-3" d="M213.33,129.79c0,7.58,4.84,15,14.39,15s14.43-7.38,14.43-15c0-7.77-4.8-14.91-14.43-14.91S213.28,121.88,213.33,129.79Zm31.31,0c0,8.82-5.66,17.31-16.93,17.31s-16.93-8.54-16.93-17.41,5.61-17.26,16.93-17.26S244.69,120.77,244.64,129.84Z"/><path class="cls-4" d="M209.87,126.72c0,7.78,5,15.36,14.77,15.36s14.82-7.58,14.82-15.36c0-8-4.92-15.31-14.82-15.31S209.82,118.59,209.87,126.72Zm32.15,0c0,9.06-5.81,17.77-17.38,17.77s-17.38-8.76-17.38-17.87,5.76-17.72,17.38-17.72S242.07,117.46,242,126.77Z"/><path class="cls-5" d="M206.42,123.65c.05,8,5.1,15.76,15.15,15.76s15.2-7.78,15.2-15.76c0-8.18-5.05-15.71-15.2-15.71S206.37,115.31,206.42,123.65Zm33,.05c-.05,9.29-6,18.23-17.83,18.23s-17.83-9-17.83-18.34c0-9.5,5.91-18.18,17.83-18.18S239.45,114.15,239.4,123.7Z"/><path class="cls-6" d="M203,120.57c.05,8.18,5.23,16.16,15.54,16.16s15.59-8,15.59-16.16c0-8.39-5.18-16.11-15.59-16.11S202.91,112,203,120.57Zm33.82.05c-.05,9.53-6.11,18.7-18.28,18.7s-18.28-9.22-18.28-18.8c0-9.74,6.06-18.64,18.28-18.64S236.83,110.84,236.78,120.63Z"/><path class="cls-7" d="M199.51,117.5c.05,8.39,5.36,16.56,15.92,16.56s16-8.17,16-16.56c0-8.6-5.31-16.51-16-16.51S199.45,108.75,199.51,117.5Zm34.66.05c-.05,9.77-6.26,19.16-18.73,19.16s-18.73-9.45-18.73-19.26c0-10,6.21-19.11,18.73-19.11S234.22,107.53,234.16,117.56Z"/><path class="cls-8" d="M196.05,114.43c.05,8.59,5.49,17,16.31,17s16.36-8.37,16.36-17c0-8.8-5.44-16.9-16.36-16.9S196,105.46,196.05,114.43Zm35.49.05c-.05,10-6.41,19.62-19.19,19.62s-19.19-9.67-19.19-19.73c0-10.22,6.36-19.57,19.19-19.57S231.6,104.21,231.54,114.49Z"/><path class="cls-9" d="M192.6,111.36c.06,8.79,5.62,17.36,16.69,17.36S226,120.15,226,111.36c0-9-5.56-17.3-16.74-17.3S192.54,102.18,192.6,111.36Zm36.33.06c-.06,10.24-6.56,20.08-19.64,20.08s-19.64-9.9-19.64-20.19c0-10.46,6.51-20,19.64-20S229,100.9,228.92,111.41Z"/><path class="cls-10" d="M189.14,108.29c.06,9,5.75,17.76,17.07,17.76s17.13-8.76,17.13-17.76c0-9.22-5.69-17.7-17.13-17.7S189.09,98.9,189.14,108.29Zm37.16.06c-.06,10.47-6.72,20.54-20.09,20.54s-20.09-10.13-20.09-20.66c0-10.7,6.66-20.49,20.09-20.49S226.36,97.59,226.31,108.34Z"/><path class="cls-11" d="M185.69,105.22c.06,9.19,5.88,18.16,17.46,18.16s17.52-9,17.52-18.16c0-9.43-5.82-18.1-17.52-18.1S185.63,95.61,185.69,105.22Zm38,.06c-.06,10.71-6.87,21-20.54,21s-20.54-10.36-20.54-21.12c0-10.94,6.81-20.95,20.54-20.95S223.74,94.28,223.69,105.27Z"/><path class="cls-12" d="M182.23,102.14c.06,9.4,6,18.55,17.84,18.55s17.9-9.16,17.9-18.55c0-9.63-5.95-18.5-17.9-18.5S182.17,92.33,182.23,102.14Zm38.83.06c-.06,10.94-7,21.47-21,21.47s-21-10.59-21-21.59c0-11.18,7-21.41,21-21.41S221.13,91,221.07,102.2Z"/><path class="cls-13" d="M178.78,99.07c.06,9.6,6.14,19,18.22,19s18.29-9.36,18.29-19c0-9.84-6.07-18.89-18.29-18.89S178.72,89,178.78,99.07Zm39.67.06c-.06,11.18-7.17,21.93-21.44,21.93S175.56,110.25,175.56,99c0-11.42,7.11-21.87,21.44-21.87S218.51,87.65,218.45,99.13Z"/><path class="cls-14" d="M175.32,96c.06,9.8,6.27,19.35,18.61,19.35S212.6,105.8,212.6,96c0-10-6.2-19.29-18.67-19.29S175.26,85.77,175.32,96Zm40.51.06c-.06,11.41-7.32,22.39-21.9,22.39s-21.9-11-21.9-22.52c0-11.66,7.26-22.33,21.9-22.33S215.89,84.34,215.83,96.06Z"/><path class="cls-53" d="M169.83,91.09c.06,10.11,6.46,20,19.19,20s19.26-9.85,19.26-20c0-10.36-6.4-19.9-19.26-19.9S169.77,80.54,169.83,91.09Zm41.78.06c-.06,11.77-7.55,23.1-22.58,23.1S166.44,102.86,166.44,91c0-12,7.49-23,22.58-23S211.67,79.06,211.61,91.16Z"/><path class="cls-54" d="M164.34,86.18c.07,10.42,6.66,20.57,19.78,20.57S204,96.6,204,86.18c0-10.68-6.59-20.5-19.84-20.5S164.27,75.31,164.34,86.18Zm43.05.07c-.07,12.13-7.78,23.8-23.27,23.8s-23.27-11.73-23.27-23.93c0-12.39,7.71-23.73,23.27-23.73S207.46,73.79,207.39,86.25Z"/><path class="cls-55" d="M158.85,81.28c.07,10.72,6.86,21.18,20.36,21.18S199.64,92,199.64,81.28c0-11-6.79-21.11-20.43-21.11S158.78,70.08,158.85,81.28Zm44.32.07c-.07,12.49-8,24.5-24,24.5s-24-12.08-24-24.64c0-12.76,7.94-24.44,24-24.44S203.24,68.51,203.17,81.34Z"/><path class="cls-56" d="M153.36,76.37c.07,11,7.05,21.78,20.95,21.78s21-10.75,21-21.78c0-11.31-7-21.72-21-21.72S153.29,64.85,153.36,76.37Zm45.59.07c-.07,12.85-8.24,25.21-24.65,25.21S149.65,89.22,149.65,76.3c0-13.13,8.17-25.14,24.65-25.14S199,63.24,199,76.44Z"/><path class="cls-57" d="M147.86,71.46c.07,11.34,7.25,22.39,21.53,22.39S191,82.8,191,71.46c0-11.63-7.18-22.32-21.6-22.32S147.79,59.62,147.86,71.46Zm46.87.07c-.07,13.21-8.47,25.91-25.34,25.91s-25.34-12.78-25.34-26.05c0-13.49,8.4-25.84,25.34-25.84S194.8,58,194.73,71.53Z"/><path class="cls-58" d="M142.37,66.55c.07,11.65,7.45,23,22.12,23s22.19-11.35,22.19-23c0-11.94-7.37-22.93-22.19-22.93S142.3,54.39,142.37,66.55Zm48.14.07c-.07,13.56-8.7,26.61-26,26.61s-26-13.12-26-26.76c0-13.86,8.63-26.54,26-26.54S190.59,52.69,190.51,66.62Z"/><path class="cls-59" d="M136.88,61.64c.08,12,7.64,23.61,22.7,23.61s22.78-11.65,22.78-23.61c0-12.26-7.57-23.53-22.78-23.53S136.8,49.16,136.88,61.64Zm49.41.08C186.22,75.64,177.36,89,159.58,89s-26.71-13.47-26.71-27.47c0-14.23,8.85-27.24,26.71-27.24S186.37,47.42,186.29,61.72Z"/><path class="cls-60" d="M131.39,56.73C131.47,69,139.23,81,154.67,81S178,69,178,56.73c0-12.57-7.76-24.14-23.36-24.14S131.31,43.93,131.39,56.73Zm50.68.08c-.08,14.28-9.16,28-27.4,28S127.27,71,127.27,56.66c0-14.59,9.08-27.94,27.4-27.94S182.15,42.14,182.07,56.81Z"/><path class="cls-61" d="M125.9,51.83c.08,12.57,8,24.82,23.87,24.82s23.95-12.25,23.95-24.82c0-12.89-8-24.75-23.95-24.75S125.82,38.7,125.9,51.83Zm52,.08c-.08,14.64-9.39,28.72-28.09,28.72s-28.09-14.16-28.09-28.88c0-15,9.31-28.64,28.09-28.64S177.93,36.87,177.85,51.91Z"/><path class="cls-62" d="M120.4,46.92c.08,12.88,8.23,25.43,24.45,25.43s24.54-12.55,24.54-25.43c0-13.21-8.15-25.35-24.54-25.35S120.32,33.47,120.4,46.92Zm53.23.08c-.08,15-9.62,29.43-28.78,29.43s-28.77-14.51-28.77-29.59c0-15.32,9.54-29.35,28.77-29.35S173.71,31.59,173.63,47Z"/><path class="cls-63" d="M114.91,42c.08,13.19,8.43,26,25,26s25.12-12.85,25.12-26c0-13.52-8.35-26-25.12-26S114.83,28.24,114.91,42Zm54.5.08c-.08,15.36-9.85,30.13-29.46,30.13s-29.46-14.86-29.46-30.3c0-15.69,9.76-30,29.46-30S169.5,26.32,169.41,42.09Z"/><path class="cls-64" d="M109.42,37.1C109.51,50.6,118,63.75,135,63.75S160.75,50.6,160.75,37.1c0-13.84-8.54-26.56-25.71-26.56S109.33,23,109.42,37.1Zm55.77.09C165.11,52.9,155.12,68,135,68s-30.15-15.2-30.15-31c0-16.06,10-30.75,30.15-30.75S165.28,21,165.19,37.19Z"/><path class="cls-40" d="M103.93,32.19c.09,13.8,8.82,27.26,26.21,27.26s26.3-13.45,26.3-27.26C156.43,18,147.7,5,130.14,5S103.84,17.78,103.93,32.19Zm57,.09c-.09,16.07-10.31,31.54-30.84,31.54S99.3,48.27,99.3,32.11C99.3,15.68,109.52.66,130.14.66S161.06,15.77,161,32.28Z"/><path class="cls-1" d="M417.76,223H429v1.34H417.76v7.56h12.1v1.42H416.31V214.19h13.22v1.4H417.76Z"/><path class="cls-52" d="M412.67,218.1h11.62v1.39H412.67v7.82h12.52v1.47h-14V208.95h13.69v1.44H412.67Z"/><path class="cls-51" d="M407.57,213.17h12v1.44h-12v8.09h12.95v1.52H406V203.71h14.15v1.49h-12.6Z"/><path class="cls-65" d="M402.48,208.23h12.4v1.48h-12.4v8.35h13.37v1.57h-15V198.46h14.61V200h-13Z"/><path class="cls-49" d="M397.39,203.3h12.8v1.53h-12.8v8.62h13.8v1.62H395.73V193.22h15.08v1.59H397.39Z"/><path class="cls-66" d="M392.29,198.37h13.19v1.58H392.29v8.88h14.22v1.67H390.59V188h15.54v1.64H392.29Z"/><path class="cls-47" d="M387.2,193.43h13.58v1.62H387.2v9.15h14.65v1.72h-16.4V182.73h16v1.69H387.2Z"/><path class="cls-46" d="M382.1,188.5h14v1.67h-14v9.41h15.07v1.77H380.3V177.49h16.47v1.74H382.1Z"/><path class="cls-45" d="M377,183.57h14.37v1.72H377V195H392.5v1.82H375.15V172.25h16.93V174H377Z"/><path class="cls-44" d="M371.92,178.63h14.77v1.76H371.92v9.94h15.92v1.87H370V167H387.4v1.84H371.92Z"/><path class="cls-43" d="M366.82,173.7H382v1.81H366.82v10.2h16.34v1.92h-18.3V161.76h17.86v1.89h-15.9Z"/><path class="cls-42" d="M361.73,168.77h15.55v1.86H361.73V181.1h16.77v2H359.72V156.52H378v1.93H361.73Z"/><path class="cls-41" d="M356.63,163.83h15.95v1.91H356.63v10.73h17.19v2H354.57V151.27h18.79v2H356.63Z"/><path class="cls-27" d="M351.54,158.9h16.34v2H351.54v11h17.62v2.07H349.43V146h19.25v2H351.54Z"/><path class="cls-41" d="M346.31,153.95h17v2h-17v11.45h18.34v2.16H344.11V140.55h20v2.12H346.31Z"/><path class="cls-42" d="M341.08,149h17.69v2.11H341.08V163h19.07v2.24H338.8v-30.2h20.84v2.2H341.08Z"/><path class="cls-43" d="M335.86,144h18.36v2.19H335.86V158.6h19.8v2.33H333.48V129.58h21.63v2.28H335.86Z"/><path class="cls-44" d="M330.63,139.09h19v2.28h-19v12.82h20.52v2.41h-23V124.1H350.6v2.37h-20Z"/><path class="cls-45" d="M325.4,134.14h19.71v2.36H325.4v13.27h21.25v2.5h-23.8V118.61h23.22v2.45H325.4Z"/><path class="cls-46" d="M320.17,129.19h20.39v2.44H320.17v13.72h22v2.59H317.54V113.13h24v2.54H320.17Z"/><path class="cls-47" d="M314.95,124.24H336v2.52H314.95v14.18h22.71v2.67H312.22v-36H337v2.62H314.95Z"/><path class="cls-48" d="M309.72,119.29h21.74v2.6H309.72v14.63h23.43v2.76H306.91V102.16h25.61v2.7h-22.8Z"/><path class="cls-49" d="M304.49,114.34h22.41V117H304.49V132.1h24.16v2.84H301.6V96.68H328v2.79H304.49Z"/><path class="cls-50" d="M299.27,109.38h23.09v2.76H299.27v15.54h24.89v2.93H296.28V91.2h27.2v2.87H299.27Z"/><path class="cls-51" d="M294,104.43H317.8v2.84H294v16h25.62v3H291V85.71h28v3H294Z"/><path class="cls-52" d="M288.81,99.48h24.44v2.92H288.81v16.45h26.34V122h-29.5V80.23h28.79v3H288.81Z"/><path class="cls-1" d="M283.58,94.53h25.11v3H283.58v16.9h27.07v3.18H280.34V74.75h29.58v3.12H283.58Z"/><path class="cls-67" d="M278.29,89.57h25.93v3.1H278.29v17.46h28v3.29H274.93V69.14h30.55v3.23h-27.2Z"/><path class="cls-68" d="M273,84.61h26.76v3.2H273v18h28.85v3.39H269.53V63.53h31.52v3.33H273Z"/><path class="cls-69" d="M267.69,79.64h27.58v3.3H267.69v18.57h29.73V105h-33.3V57.91h32.49v3.43H267.69Z"/><path class="cls-70" d="M262.39,74.68H290.8v3.39H262.39V97.2H293v3.6H258.72V52.3h33.46v3.53H262.39Z"/><path class="cls-71" d="M257.09,69.72h29.23v3.49H257.09V92.89H288.6V96.6H253.31V46.69h34.43v3.64H257.09Z"/><path class="cls-72" d="M251.79,64.76h30.05v3.59H251.79V88.58h32.4v3.81H247.91V41.08h35.4v3.74H251.79Z"/><path class="cls-73" d="M246.5,59.8h30.88v3.69H246.5V84.27h33.29v3.92H242.51V35.47h36.37v3.84H246.5Z"/><path class="cls-74" d="M241.2,54.84h31.7v3.79H241.2V80h34.17v4H237.1V29.86h37.34v3.94H241.2Z"/><path class="cls-75" d="M235.9,49.87h32.52v3.89H235.9V75.66H271v4.12H231.7V24.25H270v4H235.9Z"/><path class="cls-76" d="M230.6,44.91h33.35v4H230.6V71.35h35.95v4.23H226.29V18.64h39.28v4.15h-35Z"/><path class="cls-77" d="M225.3,40h34.17V44H225.3V67h36.84v4.33H220.89V13h40.25v4.25H225.3Z"/><path class="cls-78" d="M220,35h35v4.18H220V62.73h37.73v4.44H215.48V7.42h41.23v4.35H220Z"/><path class="cls-40" d="M214.71,30h35.82v4.28H214.71V58.42h38.61V63H210.08V1.81h42.2V6.27H214.71Z"/><path class="cls-79" d="M522.09,215.56v9.83H529c6.38,0,6.38-9.83,0-9.83Zm0,11.17v6.62h-1.48V214.19H529c8.32,0,8.32,12.54,0,12.54Z"/><path class="cls-80" d="M517,210.34v10.2h7.19c6.62,0,6.62-10.2,0-10.2Zm0,11.6v6.88h-1.54v-19.9h8.73c8.64,0,8.64,13,0,13Z"/><path class="cls-81" d="M511.82,205.12V215.7h7.46c6.87,0,6.87-10.58,0-10.58Zm0,12v7.13h-1.59V203.64h9c9,0,9,13.5,0,13.5Z"/><path class="cls-82" d="M506.69,199.89v11h7.72c7.11,0,7.11-11,0-11Zm0,12.46v7.39H505V198.37h9.37c9.28,0,9.28,14,0,14Z"/><path class="cls-83" d="M501.56,194.67V206h8c7.36,0,7.36-11.34,0-11.34Zm0,12.89v7.64h-1.71V193.09h9.7c9.6,0,9.6,14.46,0,14.46Z"/><path class="cls-84" d="M496.43,189.45v11.72h8.26c7.6,0,7.6-11.72,0-11.72Zm0,13.31v7.9h-1.76V187.81h10c9.92,0,9.92,14.95,0,14.95Z"/><path class="cls-85" d="M491.29,184.22v12.09h8.52c7.85,0,7.85-12.09,0-12.09Zm0,13.74v8.15h-1.82V182.54h10.34c10.24,0,10.24,15.43,0,15.43Z"/><path class="cls-86" d="M486.16,179v12.47H495c8.09,0,8.09-12.47,0-12.47Zm0,14.17v8.41h-1.88V177.26H495c10.56,0,10.56,15.91,0,15.91Z"/><path class="cls-87" d="M481,173.78v12.85h9.05c8.34,0,8.34-12.85,0-12.85Zm0,14.6V197H479.1V172h11c10.88,0,10.88,16.39,0,16.39Z"/><path class="cls-88" d="M475.9,168.55v13.23h9.32c8.58,0,8.58-13.23,0-13.23Zm0,15v8.92h-2V166.71h11.31c11.2,0,11.2,16.87,0,16.87Z"/><path class="cls-89" d="M470.77,163.33v13.6h9.59c8.83,0,8.83-13.6,0-13.6Zm0,15.46V188h-2V161.44h11.63c11.52,0,11.52,17.35,0,17.35Z"/><path class="cls-90" d="M465.63,158.11v14h9.85c9.07,0,9.07-14,0-14Zm0,15.89v9.42h-2.1V156.16h12c11.84,0,11.84,17.84,0,17.84Z"/><path class="cls-91" d="M460.5,152.89v14.36h10.12c9.32,0,9.32-14.36,0-14.36Zm0,16.32v9.68h-2.16v-28h12.28c12.16,0,12.16,18.32,0,18.32Z"/><path class="cls-1" d="M455.37,147.66V162.4h10.39c9.56,0,9.56-14.74,0-14.74Zm0,16.75v9.93h-2.22V145.61h12.6c12.48,0,12.48,18.8,0,18.8Z"/><path class="cls-52" d="M450.14,142.3v15.28h10.77c9.92,0,9.92-15.28,0-15.28Zm0,17.37V170h-2.3v-29.8h13.07c12.94,0,12.94,19.5,0,19.5Z"/><path class="cls-51" d="M444.91,136.93v15.83h11.16c10.27,0,10.27-15.83,0-15.83Zm0,18V165.6h-2.38V134.73h13.54c13.4,0,13.4,20.19,0,20.19Z"/><path class="cls-65" d="M439.67,131.57v16.38h11.54c10.63,0,10.63-16.38,0-16.38Zm0,18.61v11h-2.46V129.29h14c13.87,0,13.87,20.89,0,20.89Z"/><path class="cls-49" d="M434.44,126.21v16.92h11.93c11,0,11-16.92,0-16.92Zm0,19.23v11.41H431.9v-33h14.47c14.33,0,14.33,21.59,0,21.59Z"/><path class="cls-66" d="M429.21,120.84v17.47h12.31c11.34,0,11.34-17.47,0-17.47Zm0,19.85v11.78h-2.63V118.41h14.94c14.79,0,14.79,22.29,0,22.29Z"/><path class="cls-47" d="M424,115.48v18h12.7c11.69,0,11.69-18,0-18ZM424,136V148.1h-2.71V113h15.41c15.26,0,15.26,23,0,23Z"/><path class="cls-46" d="M418.74,110.11v18.56h13.08c12,0,12-18.56,0-18.56Zm0,21.1v12.51H416V107.53h15.87c15.72,0,15.72,23.68,0,23.68Z"/><path class="cls-45" d="M413.51,104.75v19.11H427c12.4,0,12.4-19.11,0-19.11Zm0,21.72v12.88h-2.87V102.09H427c16.18,0,16.18,24.38,0,24.38Z"/><path class="cls-44" d="M408.28,99.39V119h13.85c12.76,0,12.76-19.66,0-19.66Zm0,22.34V135h-3V96.65h16.81c16.64,0,16.64,25.08,0,25.08Z"/><path class="cls-43" d="M403,94v20.2h14.24c13.11,0,13.11-20.2,0-20.2Zm0,23V130.6h-3V91.21h17.28c17.11,0,17.11,25.77,0,25.77Z"/><path class="cls-42" d="M397.81,88.66v20.75h14.62c13.47,0,13.47-20.75,0-20.75Zm0,23.58v14h-3.12V85.77h17.74c17.57,0,17.57,26.47,0,26.47Z"/><path class="cls-41" d="M392.58,83.29v21.3h15c13.82,0,13.82-21.3,0-21.3Zm0,24.2v14.36h-3.2V80.33h18.21c18,0,18,27.17,0,27.17Z"/><path class="cls-27" d="M387.35,77.93V99.77h15.39c14.18,0,14.18-21.84,0-21.84Zm0,24.82v14.72h-3.29V74.89h18.68c18.5,0,18.5,27.87,0,27.87Z"/><path class="cls-28" d="M382,72.41V95h15.91c14.65,0,14.65-22.58,0-22.58Zm0,25.66v15.22h-3.4v-44h19.3c19.12,0,19.12,28.8,0,28.8Z"/><path class="cls-29" d="M376.66,66.89V90.2h16.43c15.13,0,15.13-23.31,0-23.31Zm0,26.49v15.71h-3.51V63.64h19.93c19.74,0,19.74,29.73,0,29.73Z"/><path class="cls-30" d="M371.32,61.37v24h16.94c15.6,0,15.6-24,0-24Zm0,27.32V104.9H367.7V58h20.56c20.36,0,20.36,30.67,0,30.67Z"/><path class="cls-31" d="M366,55.85V80.62h17.46c16.08,0,16.08-24.77,0-24.77ZM366,84v16.7h-3.73V52.4h21.18c21,0,21,31.6,0,31.6Z"/><path class="cls-32" d="M360.64,50.33v25.5h18c16.55,0,16.55-25.5,0-25.5Zm0,29V96.51H356.8V46.78h21.81c21.6,0,21.6,32.54,0,32.54Z"/><path class="cls-33" d="M355.29,44.81V71.05h18.49c17,0,17-26.24,0-26.24Zm0,29.82V92.32h-3.95V41.16h22.44c22.22,0,22.22,33.47,0,33.47Z"/><path class="cls-34" d="M349.95,39.29v27h19c17.5,0,17.5-27,0-27Zm0,30.65V88.12h-4.06V35.54H369c22.84,0,22.84,34.41,0,34.41Z"/><path class="cls-35" d="M344.61,33.78v27.7h19.52c18,0,18-27.7,0-27.7Zm0,31.48V83.93h-4.17v-54h23.69c23.46,0,23.46,35.34,0,35.34Z"/><path class="cls-36" d="M339.26,28.26V56.69h20c18.45,0,18.45-28.43,0-28.43Zm0,32.31V79.74H335V24.3H359.3c24.08,0,24.08,36.27,0,36.27Z"/><path class="cls-37" d="M333.92,22.74V51.9h20.55c18.93,0,18.93-29.17,0-29.17Zm0,33.15V75.54h-4.39V18.67h24.94c24.7,0,24.7,37.21,0,37.21Z"/><path class="cls-38" d="M328.58,17.22v29.9h21.07c19.4,0,19.4-29.9,0-29.9Zm0,34V71.35h-4.5V13.05h25.57c25.32,0,25.32,38.14,0,38.14Z"/><path class="cls-39" d="M323.24,11.7V42.33h21.59c19.88,0,19.88-30.63,0-30.63Zm0,34.81V67.16h-4.61V7.43h26.19c25.94,0,25.94,39.08,0,39.08Z"/><path class="cls-40" d="M317.89,6.18V37.54H340c20.36,0,20.36-31.36,0-31.36Zm0,35.64V63h-4.72V1.81H340c26.56,0,26.56,40,0,40Z"/><path class="cls-92" d="M632.08,226.74h3.71v.44h-3.71v2.5h4v.47H631.6v-6.33H636v.46h-3.89Z"/><path class="cls-93" d="M629.55,224.4h4.21v.5h-4.21v2.83h4.54v.53H629v-7.18h5v.52h-4.41Z"/><path class="cls-94" d="M627,222.07h4.7v.56H627v3.17h5.07v.6H626.4v-8h5.54v.59H627Z"/><path class="cls-95" d="M624.47,219.74h5.2v.62h-5.2v3.5h5.61v.66H623.8v-8.88h6.13v.65h-5.46Z"/><path class="cls-96" d="M621.94,217.41h5.7v.68h-5.7v3.84h6.14v.72H621.2v-9.73h6.71v.71h-6Z"/><path class="cls-97" d="M619.4,215.07h6.2v.74h-6.2V220h6.68v.79H618.6V210.19h7.3V211h-6.5Z"/><path class="cls-98" d="M616.87,212.74h6.69v.8h-6.69V218h7.22v.85H616V207.47h7.88v.83h-7Z"/><path class="cls-99" d="M614.33,210.41h7.19v.86h-7.19v4.84h7.75V217H613.4V204.74h8.47v.89h-7.54Z"/><path class="cls-100" d="M611.8,208.08h7.69V209H611.8v5.17h8.29v1H610.8V202h9.06v1H611.8Z"/><path class="cls-101" d="M609.26,205.74h8.18v1h-8.18v5.51h8.82v1H608.2v-14h9.64v1h-8.58Z"/><path class="cls-102" d="M606.73,203.41h8.68v1h-8.68v5.84h9.36v1.1H605.6V196.57h10.23v1.08h-9.1Z"/><path class="cls-103" d="M604.19,201.08h9.18v1.1h-9.18v6.18h9.89v1.16H603V193.85h10.81V195h-9.63Z"/><path class="cls-104" d="M601.65,198.75h9.68v1.16h-9.68v6.51h10.43v1.23H600.4V191.12h11.4v1.2H601.65Z"/><path class="cls-27" d="M599.12,196.41h10.17v1.22H599.12v6.85h11v1.29H597.8V188.4h12v1.27H599.12Z"/><path class="cls-26" d="M594.79,192.25h10.57v1.26H594.79v7.11h11.39V202H593.43v-18h12.45v1.31H594.79Z"/><path class="cls-25" d="M590.46,188.08h11v1.31h-11v7.38h11.82v1.39H589V179.45H602v1.36H590.46Z"/><path class="cls-24" d="M586.14,183.91h11.35v1.36H586.14v7.64h12.24v1.44H584.67V175H598v1.41H586.14Z"/><path class="cls-23" d="M581.81,179.75h11.75v1.4H581.81v7.91h12.66v1.49H580.29V170.49h13.84V172H581.81Z"/><path class="cls-22" d="M577.48,175.58h12.14V177H577.48v8.17h13.09v1.54H575.91V166h14.3v1.51H577.48Z"/><path class="cls-21" d="M573.15,171.41h12.53v1.5H573.15v8.44h13.51v1.59H571.53v-21.4H586.3v1.56H573.15Z"/><path class="cls-20" d="M568.83,167.25h12.93v1.55H568.83v8.7h13.94v1.64H567.16V157.06h15.23v1.61H568.83Z"/><path class="cls-19" d="M564.5,163.08h13.32v1.59H564.5v9h14.36v1.69H562.78V152.59h15.69v1.66h-14Z"/><path class="cls-18" d="M560.17,158.91h13.71v1.64H560.17v9.23H575v1.74H558.4V148.11h16.16v1.71H560.17Z"/><path class="cls-17" d="M555.84,154.75H570v1.69H555.84v9.5h15.21v1.79H554V143.63h16.62v1.75h-14.8Z"/><path class="cls-16" d="M551.52,150.58H566v1.73h-14.5v9.76h15.63v1.84H549.64V139.16h17.08V141H551.52Z"/><path class="cls-15" d="M547.19,146.41h14.9v1.78h-14.9v10h16.06v1.89h-18V134.68h17.55v1.85H547.19Z"/><path class="cls-14" d="M542.86,142.25h15.29v1.83H542.86v10.29h16.48v1.94H540.89V130.2h18v1.9h-16Z"/><path class="cls-13" d="M538.4,138.06h16V140h-16v10.75h17.21v2H536.34V125.49h18.81v2H538.4Z"/><path class="cls-12" d="M533.94,133.88h16.64v2H533.94v11.2h17.94v2.11H531.79V120.77h19.6v2.07H533.94Z"/><path class="cls-11" d="M529.48,129.69h17.31v2.07H529.48v11.65h18.66v2.2h-20.9V116.05h20.4v2.15H529.48Z"/><path class="cls-10" d="M525,125.51h18v2.15H525v12.11h19.39V142H522.69V111.34h21.19v2.24H525Z"/><path class="cls-9" d="M520.56,121.32h18.66v2.23H520.56v12.56h20.12v2.37H518.15V106.62h22v2.32H520.56Z"/><path class="cls-8" d="M516.1,117.14h19.34v2.31H516.1v13h20.85v2.45H513.6v-33h22.78v2.41H516.1Z"/><path class="cls-7" d="M511.64,113h20v2.39h-20v13.47h21.57v2.54H509V97.19h23.57v2.49h-21Z"/><path class="cls-105" d="M507.18,108.77h20.69v2.47H507.18v13.93h22.3v2.62h-25V92.47h24.37V95h-21.7Z"/><path class="cls-5" d="M502.71,104.58h21.36v2.55H502.71v14.38h23v2.71H500V87.75h25.16v2.66h-22.4Z"/><path class="cls-106" d="M498.25,100.39h22V103h-22v14.83H522v2.79h-26.6V83h26v2.74H498.25Z"/><path class="cls-3" d="M493.79,96.21H516.5v2.71H493.79v15.29h24.48v2.88H490.86V78.32h26.75v2.82H493.79Z"/><path class="cls-2" d="M489.33,92h23.39v2.79H489.33v15.74h25.21v3H486.31V73.6h27.55v2.91H489.33Z"/><path class="cls-1" d="M484.87,87.84h24.06v2.88H484.87v16.2h25.94V110h-29V68.88H510.1v3H484.87Z"/><path class="cls-67" d="M480.3,83.64h25v3h-25v16.81h26.91v3.17H477.07V64h29.41v3.11H480.3Z"/><path class="cls-68" d="M475.73,79.44H501.6v3.09H475.73V99.94h27.89v3.28H472.39V59.06h30.47v3.22H475.73Z"/><path class="cls-69" d="M471.16,75.24h26.77v3.2H471.16v18H500v3.4H467.7V54.15h31.54v3.33H471.16Z"/><path class="cls-70" d="M466.59,71h27.68v3.31H466.59V93h29.84v3.51H463V49.23h32.61v3.44h-29Z"/><path class="cls-71" d="M462,66.84H490.6v3.42H462V89.49h30.81v3.63H458.33V44.32H492v3.56H462Z"/><path class="cls-72" d="M457.45,62.64h29.49v3.52H457.45V86h31.79v3.74h-35.6V39.41h34.74v3.67H457.45Z"/><path class="cls-73" d="M452.88,58.44h30.39v3.63H452.88V82.53h32.76v3.85H449V34.49h35.8v3.78H452.88Z"/><path class="cls-74" d="M448.31,54.24h31.3V58h-31.3V79h33.74v4H444.27V29.58h36.87v3.89H448.31Z"/><path class="cls-75" d="M443.74,50h32.2v3.85h-32.2V75.56h34.71v4.08H439.58v-55h37.93v4H443.74Z"/><path class="cls-76" d="M439.17,45.84h33.1v4h-33.1V72.08h35.69v4.2h-40V19.76h39v4.12H439.17Z"/><path class="cls-77" d="M434.6,41.64h34V45.7h-34V68.59h36.66v4.31H430.21V14.84h40.06v4.23H434.6Z"/><path class="cls-78" d="M430,37.44h34.91v4.17H430v23.5h37.64v4.43H425.52V9.93h41.13v4.34H430Z"/><path class="cls-40" d="M425.46,33.24h35.82v4.28H425.46V61.63h38.61v4.54H420.83V5H463V9.47H425.46Z"/><path class="cls-1" d="M729.54,213.92l13.14,16.15V213.92h1.48v19.52h-.59L730.4,217.32v16.12H728.9V213.92Z"/><path class="cls-52" d="M724.42,208.72,738,225.36V208.72h1.52v20.11h-.6l-13.56-16.61v16.61h-1.55V208.72Z"/><path class="cls-51" d="M719.3,203.51l13.93,17.13V203.51h1.57v20.71h-.62l-14-17.1v17.1h-1.6V203.51Z"/><path class="cls-65" d="M714.18,198.31l14.33,17.62V198.31h1.61v21.3h-.64L715.13,202v17.59h-1.64v-21.3Z"/><path class="cls-49" d="M709.06,193.11l14.73,18.11V193.11h1.66V215h-.66L710,196.92V215h-1.69V193.11Z"/><path class="cls-66" d="M703.94,187.91l15.13,18.59V187.91h1.7v22.48h-.67l-15.16-18.56v18.56h-1.73V187.91Z"/><path class="cls-47" d="M698.83,182.7l15.52,19.08V182.7h1.75v23.07h-.69l-15.56-19.05v19.05h-1.78V182.7Z"/><path class="cls-46" d="M693.71,177.5l15.92,19.57V177.5h1.79v23.66h-.71l-16-19.54v19.54h-1.83V177.5Z"/><path class="cls-45" d="M688.59,172.3l16.32,20.06V172.3h1.84v24.26H706l-16.36-20v20h-1.87V172.3Z"/><path class="cls-44" d="M683.47,167.09l16.72,20.55V167.09h1.88v24.85h-.75l-16.75-20.52v20.52h-1.92V167.09Z"/><path class="cls-43" d="M678.35,161.89l17.12,21v-21h1.93v25.44h-.76l-17.15-21v21h-2V161.89Z"/><path class="cls-42" d="M673.23,156.69l17.51,21.53V156.69h2v26h-.78l-17.55-21.49v21.49h-2v-26Z"/><path class="cls-41" d="M668.11,151.48l17.91,22v-22h2v26.62h-.8l-18-22v22h-2.05V151.48Z"/><path class="cls-27" d="M663,146.28l18.31,22.51V146.28h2.06v27.21h-.82L664.2,151v22.47h-2.1V146.28Z"/><path class="cls-26" d="M657.68,140.81l19.06,23.44V140.81h2.15v28.33H678l-19.1-23.4v23.4h-2.19V140.81Z"/><path class="cls-25" d="M652.38,135.35l19.82,24.36V135.35h2.23V164.8h-.88l-19.86-24.32V164.8h-2.27V135.35Z"/><path class="cls-24" d="M647.07,129.88l20.57,25.29V129.88H670v30.57H669l-20.62-25.25v25.25h-2.36V129.88Z"/><path class="cls-23" d="M641.76,124.41l21.33,26.22V124.41h2.4V156.1h-1l-21.37-26.17V156.1h-2.44V124.41Z"/><path class="cls-22" d="M636.45,118.94l22.08,27.14V118.94H661v32.81h-1l-22.13-27.09v27.09h-2.53V118.94Z"/><path class="cls-21" d="M631.14,113.48,654,141.54V113.48h2.57v33.93h-1l-22.88-28v28H630V113.48Z"/><path class="cls-20" d="M625.84,108l23.59,29V108h2.65v35.05H651l-23.64-28.94v28.94h-2.7V108Z"/><path class="cls-19" d="M620.53,102.54l24.34,29.92V102.54h2.74v36.17h-1.09l-24.39-29.87v29.87h-2.79V102.54Z"/><path class="cls-18" d="M615.22,97.07l25.09,30.85V97.07h2.82v37.29H642l-25.15-30.79v30.79H614V97.07Z"/><path class="cls-17" d="M609.91,91.61l25.85,31.77V91.61h2.91V130h-1.15L611.61,98.3V130h-3V91.61Z"/><path class="cls-16" d="M604.6,86.14l26.6,32.7V86.14h3v39.53H633L606.35,93v32.64h-3V86.14Z"/><path class="cls-15" d="M599.29,80.67l27.35,33.63V80.67h3.08v40.65h-1.22L601.1,87.76v33.57H598V80.67Z"/><path class="cls-14" d="M594,75.2l28.11,34.55V75.2h3.16V117H624L595.84,82.49V117h-3.22V75.2Z"/><path class="cls-53" d="M588.55,69.55l29.11,35.79V69.55h3.28v43.27h-1.3L590.46,77.09v35.72h-3.34V69.55Z"/><path class="cls-54" d="M583.11,63.9l30.11,37v-37h3.39v44.76h-1.34l-30.18-37v37h-3.45V63.9Z"/><path class="cls-55" d="M577.66,58.25,608.78,96.5V58.25h3.5v46.25H610.9L579.71,66.31v38.19h-3.57V58.25Z"/><path class="cls-56" d="M572.22,52.59l32.12,39.49V52.59H608v47.74h-1.43L574.34,60.91v39.42h-3.68V52.59Z"/><path class="cls-57" d="M566.78,46.94l33.12,40.72V46.94h3.73V96.17h-1.48L569,55.52V96.17h-3.8V46.94Z"/><path class="cls-58" d="M561.34,41.29l34.13,42v-42h3.84V92h-1.52l-34.2-41.88V92h-3.91V41.29Z"/><path class="cls-59" d="M555.9,35.64,591,78.82V35.64h4V87.85h-1.57l-35.2-43.11V87.85h-4V35.64Z"/><path class="cls-60" d="M550.46,30,586.59,74.4V30h4.07v53.7H589L552.84,39.34V83.68H548.7V30Z"/><path class="cls-61" d="M545,24.33,582.15,70V24.33h4.18V79.52h-1.66L547.46,33.95V79.52h-4.26V24.33Z"/><path class="cls-62" d="M539.58,18.68l38.14,46.88V18.68H582V75.36h-1.7l-38.22-46.8v46.8h-4.37V18.68Z"/><path class="cls-63" d="M534.14,13l39.14,48.12V13h4.4V71.2h-1.75l-39.22-48v48h-4.49V13Z"/><path class="cls-64" d="M528.7,7.37l40.14,49.35V7.37h4.52V67h-1.79L531.34,17.77V67h-4.6V7.37Z"/><path class="cls-40" d="M523.26,1.72,564.4,52.3V1.72H569V62.87H567.2L526,12.38v50.5h-4.72V1.72Z"/></svg>