<?xml version="1.0" encoding="utf-8"?>
<!-- Generator: Adobe Illustrator 21.1.0, SVG Export Plug-In . SVG Version: 6.00 Build 0)  -->
<svg version="1.1" id="Layer_1" xmlns="http://www.w3.org/2000/svg" xmlns:xlink="http://www.w3.org/1999/xlink" x="0px" y="0px"
	 viewBox="0 0 57.9 57.9" style="enable-background:new 0 0 57.9 57.9;" xml:space="preserve">
<title>profiel</title>
<circle style="fill:#FFFFFF;" cx="28.9" cy="28.9" r="28.9"/>
<path style="fill:#00D66C;" d="M36.8,10.4c4.8,2,8.7,5.9,10.7,10.7c2.1,5,2.1,10.7,0,15.7c-2,4.8-5.9,8.7-10.7,10.7
	c-5,2.1-10.7,2.1-15.7,0c-4.8-2-8.7-5.9-10.7-10.7c-2.1-5-2.1-10.7,0-15.7c2-4.8,5.9-8.7,10.7-10.7C26.1,8.3,31.8,8.3,36.8,10.4z
	 M33,46c1.3-0.3,2.5-0.8,3.7-1.3c1.2-0.6,2.3-1.3,3.3-2.1c1-0.8,1.9-1.8,2.7-2.8c-0.2-0.1-0.4-0.3-0.7-0.4c-0.2-0.1-0.5-0.2-0.7-0.2
	l-6.5-1.8L31,41.2c-0.7,0.6-1.4,1.4-2,2.1l-5.9-6l-6.4,1.8c-0.3,0.1-0.5,0.2-0.7,0.3c-0.2,0.1-0.4,0.2-0.6,0.3
	c0.8,1,1.7,1.9,2.7,2.8c1,0.8,2.1,1.5,3.3,2.1c1.2,0.6,2.4,1,3.7,1.3c1.3,0.3,2.7,0.5,4,0.5C30.3,46.5,31.7,46.3,33,46z M23.5,18.3
	c-1.6,1.7-2.4,4.1-2,6.4c0.2,2.5,1,4.9,2.4,7c1.7,2.8,5.4,3.7,8.2,2c0.8-0.5,1.5-1.2,2-2c1.4-2.1,2.2-4.4,2.4-6.9
	c0.6-4.1-2.2-8-6.3-8.7C27.7,15.7,25.2,16.6,23.5,18.3L23.5,18.3z"/>
</svg>
