<?xml version="1.0" encoding="utf-8"?>
<!-- Generator: Adobe Illustrator 21.1.0, SVG Export Plug-In . SVG Version: 6.00 Build 0)  -->
<svg version="1.1" id="Layer_1" xmlns="http://www.w3.org/2000/svg" xmlns:xlink="http://www.w3.org/1999/xlink" x="0px" y="0px"
	 viewBox="0 0 35.7 35.7" style="enable-background:new 0 0 35.7 35.7;" xml:space="preserve">
<style type="text/css">
	.st0{fill:#FFFFFF;}
	.st1{fill:#00D66C;}
</style>
<circle class="st0" cx="17.9" cy="17.9" r="17.9"/>
<path class="st1" d="M22.7,6.4c1.5,0.6,2.8,1.5,4,2.7c1.1,1.1,2,2.4,2.7,4s1,3.1,1,4.8c0,1.7-0.3,3.3-1,4.8s-1.5,2.8-2.7,4
	c-1.1,1.1-2.4,2-4,2.7s-3.1,1-4.8,1c-1.7,0-3.3-0.3-4.8-1s-2.8-1.5-4-2.7c-1.1-1.1-2-2.4-2.7-4s-1-3.1-1-4.8c0-1.7,0.3-3.3,1-4.8
	s1.5-2.8,2.7-4s2.4-2,4-2.7s3.1-1,4.8-1C19.6,5.4,21.2,5.7,22.7,6.4z M20.3,28.4c0.8-0.2,1.6-0.5,2.3-0.8c0.7-0.4,1.4-0.8,2-1.3
	c0.6-0.5,1.2-1.1,1.7-1.7c-0.1-0.1-0.3-0.2-0.4-0.2c-0.1-0.1-0.3-0.1-0.5-0.2l-4-1.1c-0.8,0.8-1.6,1.6-2.4,2.4
	c-0.8,0.8-1.2,1.2-1.2,1.3L14.2,23l-4,1.1c-0.2,0.1-0.3,0.1-0.5,0.2c-0.1,0.1-0.3,0.1-0.4,0.2c0.5,0.6,1.1,1.2,1.7,1.7
	c0.6,0.5,1.3,0.9,2,1.3c0.7,0.4,1.5,0.6,2.3,0.8c0.8,0.2,1.6,0.3,2.5,0.3C18.7,28.7,19.5,28.6,20.3,28.4z M14.5,11.3
	c-1,1-1.4,2.3-1.2,3.9c0.1,1.7,0.6,3.1,1.5,4.3c0.8,1.2,1.9,1.8,3.2,1.8c1.3,0,2.3-0.6,3.2-1.8c0.8-1.2,1.3-2.6,1.5-4.3
	c0.1-1.7-0.3-3-1.2-4c-1-1-2.1-1.4-3.4-1.4C16.6,9.9,15.4,10.3,14.5,11.3z"/>
</svg>
