<?xml version="1.0" encoding="utf-8"?>
<!-- Generator: Adobe Illustrator 21.1.0, SVG Export Plug-In . SVG Version: 6.00 Build 0)  -->
<svg version="1.1" id="Layer_1" xmlns="http://www.w3.org/2000/svg" xmlns:xlink="http://www.w3.org/1999/xlink" x="0px" y="0px"
	 viewBox="0 0 31.9 31.9" style="enable-background:new 0 0 31.9 31.9;" xml:space="preserve">
<path style="fill:#00D66C;" d="M31.9,16c0-8.9-7-16-15.9-16S0,7.1,0,16c0,8.9,7,16,15.9,16C24.8,31.9,31.9,24.9,31.9,16L31.9,16
	L31.9,16z"/>
<path style="fill:#FFFFFF;" d="M23,18.3h-0.9c-0.9,0-1.3,0.5-1.4,1.4c-0.2,1.7-1.6,2.8-3.3,2.8c-2,0-3.4-1.5-3.4-3.7v-5.1
	c0-0.2,0-0.4-0.1-0.5c0.2,0.1,0.4,0.1,0.7,0.1h4.7c0.9,0,1.4-0.5,1.4-1.4v-0.4c0-0.9-0.5-1.4-1.4-1.4h-2.7V7.2
	c0-0.9-0.5-1.4-1.4-1.4h-0.6c-0.9,0-1.4,0.5-1.4,1.4v4.7c0,0.2,0,0.4,0.1,0.5c-0.2-0.1-0.5-0.1-0.7-0.1H7.9c-0.9,0-1.4,0.5-1.4,1.4
	v0.4c0,0.9,0.5,1.4,1.4,1.4h2.7v3.3c0,4.1,2.7,7,6.8,7c3.9,0,6.4-2.5,6.9-6.2C24.4,18.7,23.8,18.3,23,18.3L23,18.3z"/>
</svg>
