<svg xmlns="http://www.w3.org/2000/svg" width="158.036" height="28.348" viewBox="20.194 14.172 158.036 28.348"><path fill="#fff" d="M48.484 28.348c0-7.896-6.248-14.177-14.145-14.177-7.898 0-14.147 6.28-14.147 14.18 0 7.893 6.25 14.17 14.145 14.17 7.896 0 14.144-6.277 14.144-14.17z"/><path fill="#00D66C" d="M40.588 30.393h-.795c-.795 0-1.135.424-1.25 1.248-.2 1.508-1.392 2.527-2.955 2.527-1.817 0-2.98-1.334-2.98-3.266V26.36c0-.182-.026-.342-.07-.485.17.076.374.116.608.116h4.175c.798 0 1.25-.456 1.25-1.25v-.37c0-.796-.452-1.25-1.25-1.25h-2.354v-2.557c0-.794-.456-1.25-1.25-1.25h-.57c-.794 0-1.248.456-1.248 1.25v4.176c0 .18.023.34.07.484a1.502 1.502 0 0 0-.61-.116h-4.175c-.795 0-1.25.455-1.25 1.25v.37c0 .795.455 1.25 1.25 1.25h2.358V30.9c0 3.664 2.358 6.22 6.05 6.22 3.438 0 5.71-2.187 6.135-5.48.114-.824-.426-1.247-1.136-1.247z"/><path fill="#fff" d="M67.888 35.86h3.32v-7.218c0-2.61 1.426-3.52 3.127-3.52.988 0 1.72.295 2.393.868l1.504-2.65c-.91-.83-2.118-1.243-3.304-1.243-1.583 0-3.125.73-3.916 2.154l-.217-1.877h-2.907v13.49zm93.688-16.692c0-1.285-.988-1.938-1.98-1.938-.966 0-1.956.65-1.956 1.938 0 1.307.99 1.938 1.957 1.938.99 0 1.98-.633 1.98-1.938zm-99.76-.67l-3.324.355v3.52h-2.49v2.87h2.49v6.03c0 3.243 1.86 4.747 4.648 4.747 1.188 0 2.197-.277 2.908-.674l-.89-2.69c-.474.218-1.067.378-1.623.378-1.107 0-1.72-.633-1.72-1.918v-5.874h3.718v-2.868h-3.718v-3.877zm30.893 3.876h-2.987l-.218 1.88c-.752-1.247-2.236-2.155-4.55-2.155-3.698 0-6.902 2.31-6.902 7.02s3.204 7.02 6.903 7.02c2.313 0 3.797-.908 4.55-2.154l.217 1.88h2.985V22.373zm65.227 0v13.488h3.324V22.374h-3.323zM85.41 33.25c-2.273 0-3.974-1.52-3.974-4.132s1.7-4.134 3.975-4.134c2.277 0 3.978 1.52 3.978 4.134 0 2.61-1.7 4.132-3.976 4.132zm54.274-10.876h-2.988l-.22 1.88c-.75-1.247-2.23-2.155-4.546-2.155-3.7 0-6.902 2.31-6.902 7.02s3.203 7.02 6.902 7.02c2.313 0 3.797-.908 4.547-2.154l.22 1.88h2.987V22.373zm-7.3 10.876c-2.274 0-3.977-1.52-3.977-4.132s1.7-4.134 3.977-4.134 3.978 1.52 3.978 4.134c0 2.61-1.702 4.132-3.978 4.132zm45.846-10.876h-2.988l-.217 1.88c-.75-1.247-2.234-2.155-4.547-2.155-3.7 0-6.904 2.31-6.904 7.02s3.205 7.02 6.904 7.02c2.312 0 3.797-.908 4.547-2.154l.217 1.88h2.988V22.373zm-7.298 10.876c-2.272 0-3.976-1.52-3.976-4.132s1.7-4.134 3.976-4.134 3.978 1.52 3.978 4.134c-.002 2.61-1.703 4.132-3.978 4.132zm-20.37 2.61l5.755-13.487h-3.46l-3.938 9.947-3.94-9.947H141.3l5.754 13.488h3.504zm-54.688 0h3.324v-7.237c0-2.273 1.463-3.56 3.4-3.56 1.938 0 3.264 1.284 3.264 3.56v7.238h3.324v-7.73c0-4.016-2.494-6.03-5.68-6.03-2.115 0-3.677.89-4.428 2.154l-.217-1.88h-2.986v13.49zm21.696.277c4.174 0 5.934-1.896 5.934-4.29 0-3.026-2.848-3.778-5.143-4.075-1.322-.18-3.36-.296-3.36-1.603 0-.97 1.147-1.388 2.57-1.388 1.286 0 2.573.337 3.62 1.246l1.68-2.217c-1.48-1.283-3.2-1.72-5.14-1.72-2.888 0-6.093.988-6.093 4.23 0 2.987 2.69 3.778 5.143 4.094 1.4.18 3.362.316 3.362 1.604 0 .946-1.068 1.383-2.453 1.383-1.566 0-3.62-.57-4.87-1.88l-1.68 2.217c1.7 1.883 4.254 2.397 6.43 2.397z"/></svg>