<svg id="Layer_1" data-name="Layer 1" xmlns="http://www.w3.org/2000/svg" viewBox="0 0 1345.43 308.11"><defs><style>.cls-1{opacity:0.75;}.cls-2{fill:#ec6373;}</style></defs><title>verliefd</title><g class="cls-1"><path class="cls-2" d="M5.48,181.6c33,4.24,66.69,7.45,99.86,2.62a147.85,147.85,0,0,0,43.55-12.95,111,111,0,0,0,19.31-12c3-2.28,5.79-4.68,8.51-7.24,3.63-3.44,6.81-7.93,11-2.63,5.4,6.74,7.13,17.87,9.67,26,3,9.7,6.2,19.41,10.63,28.58,6.71,13.88,17.31,26.93,31.58,33.46,33.07,15.15,63.32-12.55,75.08-41.62a185.57,185.57,0,0,0,8-26c2-8,4.47-16.79,2.76-25.1-3.07-14.89-19.19-19.06-30.67-10.32-12.81,9.74-10.19,26.9-1.27,38.44,9.61,12.42,24.9,19.5,40.26,21.33,14.73,1.75,30.33-1.33,42.86-9.42,11.69-7.55,21.83-21.13,19.86-35.75-1.84-13.71-15.43-21.68-28.38-17.39-12.57,4.16-22.65,16.25-26,28.85-7.93,30.2,11.36,69.48,46.5,65.58,17.88-2,33.53-14.19,42.5-29.39,10.55-17.89,13.18-38.91,15.71-59.14.26-2.09-1.33-3.87-2.86-5-9-6.55-19.9.43-23.74,9.43-4.77,11.18,2.12,21.84,12.85,25.9,25.6,9.69,55-11.13,67.83-32,3.57-5.83-4.28-11.11-9.05-7-18.24,15.76-31.9,39.35-26.37,64.1,5.06,22.65,25.22,38.39,48.62,34.56,26.47-4.33,42.44-27.2,52-50.35,11-26.67,21.42-56.65,20.4-85.84-.93-26.42-13.44-54-38.16-65.93-4-1.93-8.45.41-8.68,5a766.7,766.7,0,0,0,8.51,158c2.9,18.28,7.3,42.14,29.45,45.33,18.91,2.72,36-12.13,46.43-26.26,15.47-21,24.7-45.75,28.07-71.53.87-6.7-9.42-7.41-11.32-1.53-6.54,20.2-12.94,43.73-.22,63,4.59,7,11.15,12.58,19.23,15,10.87,3.22,22-.49,31.83-5.06,31.4-14.59,69.06-37.13,72.84-75.08a5.76,5.76,0,0,0-4.23-5.56c-18.05-3.54-37,4.22-46.9,20-9.57,15.27-7.19,35.7,3.75,49.6,12.31,15.65,33.53,19.3,51.92,13.65,20.55-6.32,35.43-22.83,46.73-40.38C841.26,129.78,856,82.93,859.19,36c.63-9.24,1.44-19.68-4.25-27.63-5.1-7.14-14.08-9.54-22.44-7.82-21.19,4.35-26,28.93-28.72,46.95-7.38,49.19,1,98.53,4.62,147.64,1.84,24.93,2.57,50.21-1,75-1.15,8-2.52,19.76-9.76,24.82-8.7,6.06-14.71-6.2-13-13.62,2.34-10.31,13.28-17.07,21.26-22.76l32.54-23.16,66.17-47.1c10.75-7.65,21.9-14.94,32.28-23.08,6.71-5.26,10.68-13.16,6.72-21.46A21.17,21.17,0,0,0,923.08,132c-9.26.85-16.79,7.86-21.11,15.69-9.28,16.83-7.8,41.21,8.33,53.39,15.64,11.82,35.44,7.27,45.73-8.9,6-9.42,9.35-20.78,13.1-31.2q6.37-17.69,11.9-35.66,11.25-36.53,19-74,3.81-18.41,6.75-37c.94-5.84-7.62-10.93-10.54-4.44a475.88,475.88,0,0,0-37.58,128.35c-4,27.77-13.89,87.11,30.68,86.77,20.34-.16,35-14.44,49.24-27.1A108.48,108.48,0,0,1,1090,172.19c38.79-7.94,78.52.7,116.75,7.61,45,8.14,93.48,14.29,135.76-7.6,6.59-3.41.77-13.37-5.82-10-35.66,18.46-77.17,14.83-115.45,8.43-36.17-6-72.24-14.77-109.19-12.75-16.7.91-33.34,3.93-48.8,10.47-17.25,7.3-29.81,19.22-43.83,31.2-12.4,10.59-36.42,23-48.17,4.48-8.94-14.08-4.74-35.42-3-50.89a461.9,461.9,0,0,1,37.92-137.47l-10.54-4.44A813.66,813.66,0,0,1,964.56,139q-5.33,16.06-11.33,31.88c-3.11,8.19-6.59,18.35-14.47,23.18-7.25,4.44-16.72,2.25-22.84-3.17-7.29-6.45-9.25-17.26-7.66-26.51,1.36-7.94,6.25-19.71,15.55-20.8,3.64-.43,8.12,1.74,9.41,5.39,1.79,5.07-5,8.43-8.43,10.89l-57.49,40.92-56.4,40.15c-13.62,9.69-33.74,20.24-37.56,38.16-2.77,13,5.44,29.31,20.14,29,15.82-.29,22.36-18.32,24.49-31.28,6.92-42.16,1.86-84.81-2.13-127-2-21.48-3.81-43-3.5-64.63a271.4,271.4,0,0,1,2.12-31.39c1.29-9.82,2.67-20.6,6.9-29.66,3.4-7.29,11.33-15.39,20.28-12,8.75,3.27,6.53,16.68,6,23.88a273.42,273.42,0,0,1-11.34,61.09A273.23,273.23,0,0,1,811,155.15c-9.64,16.52-21.7,33.77-39.85,41.64-16.5,7.16-37.53,5.33-47.43-11.28-8.87-14.89-5.06-33.84,9.82-43.15a32.8,32.8,0,0,1,23.67-4.62l-4.23-5.56c-3,29.85-33.38,47.53-57.24,60.11-7.86,4.15-16.38,9.13-25.45,9.66s-16.27-4.5-20.73-12c-9.62-16.27-3-36,2.39-52.5l-11.32-1.53a141.86,141.86,0,0,1-20.15,56.34C612.2,205.46,597,225.13,579,222.28c-18.45-2.91-19-32.13-21-46.07-3.33-22.79-5.53-45.75-6.72-68.75a765.57,765.57,0,0,1,0-77.15l-8.68,5c18.1,8.74,28.38,27,31.55,46.32,3.92,24-3.53,48.4-11.18,70.85-7.08,20.77-14.91,45.14-34.61,57.4-17.7,11-40,8.06-49.05-12.12C469,175,483,151.68,500,136.94l-9.05-7c-8.66,14.15-23.63,25.8-40.41,28.15-6.08.85-16.78.58-19.85-6.12-1.9-4.13,2.55-13.11,7.45-9.56l-2.86-5c-3.42,27.36-8.37,61.21-36.69,74-25.87,11.68-46.36-10.65-46.72-35.69-.17-11.66,3.8-22.79,13.46-29.89,3.54-2.6,8.4-5,12.88-3.73,5.95,1.69,7.67,8,6.65,13.47-4.94,26.25-41.76,31.7-62.48,24.11-11.12-4.07-28.59-16.29-24.77-30.38,1.21-4.45,6.5-9.1,11.42-8.23,7.29,1.29,5.45,12.08,4.46,17.11-5.21,26.3-14.77,59.59-42.87,69.63-30.26,10.81-50-19.72-58.39-44.06-4.56-13.15-6.82-29.55-15.12-41-3-4.14-7.27-7.63-12.61-7.86-6.11-.26-10.46,3.59-14.59,7.53C126.6,183.88,60.11,177.08,5.48,170.07c-7.34-.94-7.27,10.6,0,11.53Z"/><path class="cls-2" d="M677.13,85.07c-6.32-7.62-18-2.33-24.8,1.69l8.68,5c.13-7.44-1.68-15.41-9.65-18-7-2.26-15.67-.23-18.07,7.43s1.92,17.27,3.16,24.85c.68,4.14.4,9.17,2.17,13a56.21,56.21,0,0,0,3,5c2.64,4.4,9,3.27,10.54-1.38,2.57-7.74,9.05-13.06,15.78-17.2,6.22-3.83,14.26-9.18,10.71-17.75-2.8-6.76-14-3.79-11.12,3.07.86,2.09-5.6,4.81-7.37,6a68.84,68.84,0,0,0-8,6.06A38.61,38.61,0,0,0,641,119.5l10.54-1.38L650,115.56c-.33-.56-1.42-2.85-1.19-2,.4,1.51-.15-3-.21-3.4q-.22-1.72-.46-3.44-.61-4.28-1.43-8.52c-.43-2.22-4-12.09-2.38-13.75.91-.91,3.93.31,4.52,1.12,1,1.44.64,4.5.61,6.14a5.82,5.82,0,0,0,8.68,5c2-1.18,9-5.65,10.83-3.49C673.72,98.93,681.84,90.74,677.13,85.07Z"/></g></svg>