<?xml version="1.0" encoding="utf-8"?>
<!-- Generator: Adobe Illustrator 21.1.0, SVG Export Plug-In . SVG Version: 6.00 Build 0)  -->
<svg version="1.1" id="Layer_1" xmlns="http://www.w3.org/2000/svg" xmlns:xlink="http://www.w3.org/1999/xlink" x="0px" y="0px"
	 viewBox="0 0 57.9 57.9" style="enable-background:new 0 0 57.9 57.9;" xml:space="preserve">
<title>zoeken</title>
<circle style="fill:#2800A0;" cx="28.9" cy="28.9" r="28.9"/>
<path style="fill:#FFFFFF;" d="M37.7,33.9l11.4,11.5l-3.7,3.7L33.9,37.6c-1.3,0.9-2.8,1.6-4.3,2.2c-1.6,0.5-3.2,0.8-4.9,0.8
	c-2.1,0-4.2-0.4-6.2-1.2c-3.8-1.6-6.8-4.7-8.5-8.5c-1.7-4-1.7-8.4,0-12.4c1.6-3.8,4.7-6.8,8.5-8.5c4-1.7,8.4-1.7,12.4,0
	c3.8,1.6,6.8,4.7,8.5,8.5c0.8,2,1.3,4.1,1.2,6.2c0,1.7-0.3,3.3-0.8,4.9C39.3,31.1,38.6,32.6,37.7,33.9z M28.9,34.7
	c2.6-1.1,4.7-3.2,5.8-5.8c1.1-2.7,1.1-5.7,0-8.5c-1.1-2.6-3.2-4.7-5.8-5.8c-2.7-1.1-5.7-1.1-8.4,0c-2.6,1.1-4.7,3.2-5.8,5.8
	c-1.1,2.7-1.1,5.7,0,8.5c1.1,2.6,3.2,4.7,5.8,5.8C23.2,35.8,26.2,35.8,28.9,34.7L28.9,34.7z"/>
</svg>
