<?xml version="1.0" encoding="utf-8"?>
<!-- Generator: Adobe Illustrator 21.1.0, SVG Export Plug-In . SVG Version: 6.00 Build 0)  -->
<svg version="1.1" id="Layer_1" xmlns="http://www.w3.org/2000/svg" xmlns:xlink="http://www.w3.org/1999/xlink" x="0px" y="0px"
	 viewBox="0 0 35.7 35.7" style="enable-background:new 0 0 35.7 35.7;" xml:space="preserve">
<style type="text/css">
	.st0{fill:#2800A0;}
	.st1{fill:#FFFFFF;}
</style>
<circle class="st0" cx="17.9" cy="17.9" r="17.9"/>
<path class="st1" d="M23.2,20.9l7.1,7.1L28,30.3l-7.1-7.1c-0.8,0.6-1.7,1-2.6,1.3c-1,0.3-2,0.5-3,0.5c-1.4,0-2.6-0.3-3.8-0.8
	s-2.2-1.2-3.1-2.1c-0.9-0.9-1.6-1.9-2.1-3.1c-0.5-1.2-0.8-2.5-0.8-3.8s0.3-2.6,0.8-3.8s1.2-2.2,2.1-3.1c0.9-0.9,1.9-1.6,3.1-2.1
	s2.5-0.8,3.8-0.8s2.6,0.3,3.8,0.8c1.2,0.5,2.2,1.2,3.1,2.1c0.9,0.9,1.6,1.9,2.1,3.1s0.8,2.5,0.8,3.8c0,1.1-0.2,2.1-0.5,3
	C24.2,19.2,23.8,20.1,23.2,20.9z M17.8,21.4c0.8-0.3,1.5-0.8,2.1-1.4c0.6-0.6,1.1-1.3,1.4-2.1c0.3-0.8,0.5-1.7,0.5-2.6
	c0-0.9-0.2-1.8-0.5-2.6c-0.3-0.8-0.8-1.5-1.4-2.1c-0.6-0.6-1.3-1.1-2.1-1.4c-0.8-0.3-1.7-0.5-2.6-0.5c-0.9,0-1.8,0.2-2.6,0.5
	c-0.8,0.3-1.5,0.8-2.1,1.4c-0.6,0.6-1.1,1.3-1.4,2.1c-0.3,0.8-0.5,1.7-0.5,2.6c0,0.9,0.2,1.8,0.5,2.6c0.3,0.8,0.8,1.5,1.4,2.1
	c0.6,0.6,1.3,1.1,2.1,1.4c0.8,0.3,1.7,0.5,2.6,0.5C16.2,21.9,17,21.8,17.8,21.4z"/>
</svg>
